<?xml version="1.0" standalone="no"?>
<!DOCTYPE svg PUBLIC "-//W3C//DTD SVG 20010904//EN"
 "http://www.w3.org/TR/2001/REC-SVG-20010904/DTD/svg10.dtd">
<svg version="1.0" xmlns="http://www.w3.org/2000/svg"
 width="300.000000pt" height="300.000000pt" viewBox="0 0 300.000000 300.000000"
 preserveAspectRatio="xMidYMid meet">
<metadata>
Created by potrace 1.10, written by Peter Selinger 2001-2011
</metadata>
<g transform="translate(0.000000,300.000000) scale(0.100000,-0.100000)"
fill="#000000" stroke="none">
<path d="M101 2990 c-44 -10 -80 -48 -91 -94 l-8 -36 62 56 c51 47 87 87 74
83 -2 -1 -18 -5 -37 -9z"/>
<path d="M2860 2993 c0 -2 29 -33 64 -69 36 -35 67 -64 69 -64 13 0 -15 77
-36 97 -20 21 -97 49 -97 36z"/>
<path d="M88 2921 l-33 -29 -3 -145 -3 -145 31 -35 c29 -34 30 -36 12 -46 -42
-23 -42 -26 -40 -981 l3 -915 23 -33 c34 -46 19 -40 -33 15 l-45 48 7 -35 c3
-19 13 -45 21 -58 31 -47 57 -52 274 -52 112 0 208 4 214 8 19 13 23 39 8 61
-15 20 -23 21 -209 21 -163 0 -196 3 -209 16 -14 14 -16 113 -16 945 l0 929
1410 0 1410 0 0 -929 c0 -832 -2 -931 -16 -945 -12 -12 -37 -16 -103 -16 -92
0 -111 -8 -111 -45 0 -38 19 -45 123 -45 134 0 176 25 190 113 4 28 4 28 -42
-17 -26 -25 -51 -46 -56 -46 -6 0 -2 5 8 11 47 28 47 21 47 985 0 963 0 950
-46 968 -15 6 -13 11 12 37 l29 30 0 150 0 151 -33 29 -32 29 -1380 0 -1380 0
-32 -29z m2804 -28 c16 -14 18 -33 18 -165 l0 -148 -1410 0 -1410 0 0 147 c0
122 3 149 17 165 15 17 72 18 1391 18 1266 0 1377 -1 1394 -17z"/>
<path d="M246 2774 c-9 -8 -16 -22 -16 -29 0 -7 7 -21 16 -29 30 -30 74 -13
74 29 0 42 -44 59 -74 29z"/>
<path d="M439 2769 c-16 -30 3 -69 34 -69 29 0 47 17 47 45 0 45 -60 63 -81
24z"/>
<path d="M642 2778 c-15 -15 -15 -51 0 -66 28 -28 78 -7 78 33 0 27 -18 45
-45 45 -12 0 -26 -5 -33 -12z"/>
<path d="M1032 2778 c-15 -15 -15 -51 0 -66 9 -9 208 -12 835 -12 l822 0 12
21 c8 16 8 28 0 45 l-11 24 -823 0 c-627 0 -826 -3 -835 -12z"/>
<path d="M488 2305 c-9 -21 -8 -28 7 -45 18 -19 31 -20 401 -20 334 0 385 2
398 16 19 18 21 45 4 62 -9 9 -113 12 -405 12 l-393 0 -12 -25z"/>
<path d="M2218 2206 c-78 -32 -135 -67 -220 -134 -115 -92 -182 -173 -272
-332 -73 -128 -86 -145 -107 -143 -13 1 -239 32 -502 68 l-479 66 -108 -81
c-59 -44 -111 -88 -114 -96 -3 -9 -2 -23 4 -33 8 -16 903 -411 930 -411 5 0
10 -4 10 -8 0 -14 -170 -306 -185 -317 -7 -6 -82 -17 -166 -23 -84 -7 -158
-17 -164 -22 -22 -19 -135 -217 -135 -237 0 -30 13 -37 135 -76 l110 -34 1
-39 c2 -115 141 -209 235 -160 27 14 27 13 95 -81 72 -100 89 -115 120 -107
16 5 155 161 177 199 4 7 -10 85 -31 172 l-38 159 119 135 c66 74 122 135 126
137 3 1 155 -163 336 -364 182 -202 340 -373 352 -381 39 -26 55 -4 101 135
l43 130 -227 455 -228 455 111 123 c125 140 156 188 207 311 67 162 93 332 66
430 -13 44 -52 93 -91 113 -43 23 -144 19 -211 -9z m179 -81 c56 -39 55 -172
-2 -344 -20 -58 -52 -134 -71 -169 -32 -59 -565 -669 -1142 -1305 -28 -32 -39
-38 -61 -32 -34 9 -71 44 -71 68 0 11 114 221 253 466 140 245 328 576 418
735 175 309 211 357 339 459 139 111 280 162 337 122z m-1262 -557 c248 -33
451 -62 453 -64 2 -1 -12 -26 -31 -55 -18 -30 -60 -100 -91 -156 -32 -57 -62
-103 -67 -103 -4 0 -190 78 -411 173 -222 96 -411 177 -422 181 -16 5 -10 12
35 46 30 21 61 39 69 40 8 0 218 -28 465 -62z m-583 29 c-26 -28 -28 -54 -5
-79 20 -22 5 -23 -42 -4 -19 8 -35 21 -35 29 0 13 77 76 94 77 5 0 0 -10 -12
-23z m1138 -21 c-5 -14 -26 -53 -47 -88 -21 -35 -86 -147 -143 -251 -101 -181
-105 -186 -111 -152 -3 19 -14 44 -24 55 -18 20 -18 20 11 14 42 -8 66 19 152
163 95 160 101 177 71 209 -12 13 -21 24 -18 25 2 1 19 2 38 4 18 2 43 12 54
24 27 27 29 26 17 -3z m434 -296 l-27 -40 19 -47 c11 -27 20 -51 22 -55 2 -4
-11 6 -28 22 -18 17 -37 30 -43 30 -14 0 -136 -124 -210 -214 -60 -74 -68
-100 -41 -141 18 -27 5 -35 -16 -10 -16 19 -50 19 -78 -1 -12 -8 -22 -11 -22
-6 0 10 436 502 446 502 2 0 -8 -18 -22 -40z m158 -539 l206 -418 -20 -68 -21
-67 -46 53 c-25 30 -93 106 -151 169 -249 274 -415 462 -415 469 0 5 50 65
110 135 61 70 112 131 113 136 2 6 7 10 10 9 4 0 100 -189 214 -418z m-1086
-38 c-20 -37 -45 -79 -56 -93 l-20 -25 17 43 c16 41 16 43 -5 65 -12 13 -22
26 -22 29 0 3 17 8 38 12 21 3 47 15 57 26 32 35 28 14 -9 -57z m-76 -31 c0
-4 -4 -12 -9 -17 -6 -6 -32 -48 -58 -95 l-48 -86 -92 29 -91 29 40 63 39 63
77 7 c42 4 82 8 87 10 20 7 55 5 55 -3z m378 -97 c-17 -29 -19 -45 -14 -87 l7
-50 -27 21 c-24 19 -29 19 -54 6 -35 -18 -128 -119 -148 -161 -14 -30 -13 -35
7 -74 l21 -41 -35 27 c-23 17 -43 25 -59 22 -19 -4 0 22 87 121 119 133 228
251 233 251 2 0 -6 -16 -18 -35z m-700 -10 c-10 -22 -8 -30 11 -55 23 -32 18
-36 -23 -20 -31 12 -33 32 -5 71 25 36 32 37 17 4z m255 -117 l-48 -93 -20 40
-20 40 28 6 c33 8 64 34 83 71 8 16 17 28 20 28 2 0 -17 -42 -43 -92z m412
-108 l25 -103 -44 -54 c-25 -30 -49 -53 -53 -51 -4 1 -31 34 -59 72 l-51 70
76 88 c41 48 77 85 79 84 1 -2 14 -49 27 -106z m4 -209 c-40 -49 -76 -88 -81
-85 -4 3 -22 26 -40 51 l-31 47 35 -27 c19 -15 39 -27 45 -27 20 0 91 71 114
115 13 25 25 39 27 31 2 -8 -29 -55 -69 -105z m968 39 c9 0 27 10 40 22 20 19
23 19 23 4 0 -23 -27 -86 -37 -86 -9 0 -49 41 -108 110 -27 31 -25 30 17 -8
26 -23 55 -42 65 -42z"/>
<path d="M2115 1896 c-21 -32 -6 -62 34 -71 16 -3 37 -15 47 -26 32 -35 84
-19 84 26 0 39 -77 95 -130 95 -11 0 -27 -11 -35 -24z"/>
<path d="M488 2055 c-9 -21 -8 -28 7 -45 18 -20 30 -20 531 -20 l514 0 15 24
c13 19 14 29 5 45 -11 21 -15 21 -536 21 l-524 0 -12 -25z"/>
</g>
</svg>
