<?xml version="1.0" standalone="no"?>
<!DOCTYPE svg PUBLIC "-//W3C//DTD SVG 20010904//EN"
 "http://www.w3.org/TR/2001/REC-SVG-20010904/DTD/svg10.dtd">
<svg version="1.0" xmlns="http://www.w3.org/2000/svg"
 width="300.000000pt" height="143.000000pt" viewBox="0 0 300.000000 143.000000"
 preserveAspectRatio="xMidYMid meet">
<metadata>
Created by potrace 1.10, written by Peter Selinger 2001-2011
</metadata>
<g transform="translate(0.000000,143.000000) scale(0.100000,-0.100000)"
fill="#000000" stroke="none">
<path d="M418 1187 c-102 -39 -165 -97 -211 -197 -17 -38 -21 -71 -24 -215 -5
-175 3 -250 26 -250 10 0 13 46 14 210 2 197 3 213 25 256 82 168 286 227 436
128 48 -32 102 -96 91 -107 -4 -4 -10 -1 -12 6 -4 9 -8 10 -18 2 -9 -8 -17 -7
-26 3 -8 7 -36 28 -63 46 -40 28 -61 35 -117 39 -86 6 -142 -14 -198 -69 -60
-61 -71 -105 -70 -293 0 -89 3 -169 7 -178 6 -15 12 -14 52 13 25 17 45 38 46
47 2 31 4 32 29 16 25 -16 27 -16 63 13 20 16 42 40 48 52 9 18 13 19 22 8 15
-17 -4 -35 -109 -105 -92 -62 -221 -127 -267 -136 -90 -16 -97 63 -16 170 13
17 24 44 24 60 l-1 29 -36 -40 c-46 -52 -93 -150 -93 -196 0 -55 26 -72 97
-67 67 5 160 48 251 116 84 62 244 203 238 209 -3 3 -19 -7 -37 -21 -29 -25
-33 -26 -50 -11 -16 16 -20 14 -56 -25 -21 -24 -41 -47 -45 -53 -4 -7 -16 -4
-34 8 -26 17 -28 17 -41 -1 -38 -54 -47 -64 -58 -64 -20 0 -25 25 -25 131 0
116 -17 105 175 113 160 6 204 19 91 27 -58 4 -82 10 -91 22 -7 9 -19 17 -28
17 -9 0 -19 5 -23 11 -5 8 10 10 55 5 33 -3 89 -9 122 -12 45 -5 60 -3 55 5
-4 6 -16 11 -27 11 -11 0 -28 7 -37 16 -15 16 -13 16 30 10 29 -4 49 -3 53 4
4 6 -12 10 -47 10 -36 0 -63 6 -83 20 -16 11 -40 20 -52 20 -13 0 -23 4 -23 9
0 17 -34 22 -46 7 -6 -9 -14 -13 -17 -9 -4 3 -7 1 -7 -6 0 -7 -9 -9 -25 -5
-22 5 -25 3 -25 -19 0 -14 -7 -27 -15 -31 -8 -3 -15 -3 -15 0 0 14 32 62 57
85 89 83 214 85 318 5 19 -14 16 -15 -31 -9 -78 9 -73 -11 9 -36 74 -22 128
-54 114 -68 -5 -4 -13 -1 -18 7 -9 12 -10 11 -5 -4 5 -14 -5 -31 -36 -63 -41
-42 -44 -43 -90 -37 -26 4 -48 4 -48 2 0 -3 18 -17 40 -32 23 -15 46 -41 55
-63 19 -44 30 -36 27 20 -1 36 3 45 28 65 l30 24 0 -124 c0 -68 -4 -129 -8
-136 -6 -9 -18 1 -41 33 -24 34 -38 44 -50 39 -9 -3 -21 -7 -28 -7 -7 0 -11
-5 -10 -10 1 -5 -4 -12 -10 -14 -15 -6 -17 23 -3 32 6 4 4 12 -5 22 -9 8 -19
12 -23 9 -3 -4 -1 -11 6 -15 9 -5 4 -15 -18 -34 -33 -30 -38 -47 -15 -47 8 0
15 -4 15 -10 0 -5 -5 -10 -11 -10 -5 0 -7 -5 -4 -10 4 -6 11 -8 16 -5 5 4 9 2
9 -3 0 -5 8 -12 18 -16 9 -3 23 -9 31 -12 10 -5 12 -2 8 9 -3 9 -2 19 3 22 5
3 7 17 4 30 -2 14 0 25 6 25 5 0 10 7 10 15 0 26 15 16 49 -32 28 -39 31 -50
22 -70 -6 -12 -15 -23 -21 -23 -6 0 -8 -4 -5 -10 8 -13 -70 -68 -117 -82 -29
-9 -41 -9 -50 0 -9 9 -9 12 1 12 10 0 11 3 2 13 -6 8 -8 16 -5 19 2 3 -2 8
-11 11 -10 5 -15 0 -15 -13 0 -10 -5 -22 -10 -25 -15 -9 -80 14 -80 29 0 6 17
29 38 49 40 39 55 38 63 -7 2 -10 14 -23 27 -27 15 -6 21 -5 17 1 -3 6 0 10 7
10 7 1 2 7 -12 15 -15 9 -19 15 -10 15 10 0 8 6 -9 19 -15 11 -20 21 -13 25 6
4 9 13 6 21 -5 12 -15 8 -50 -16 -24 -16 -44 -33 -44 -37 0 -4 -16 -20 -36
-36 -29 -22 -38 -26 -45 -15 -4 7 -12 10 -16 5 -14 -14 59 -66 116 -83 94 -27
186 0 251 73 53 61 60 89 60 242 0 133 1 139 24 161 l24 22 20 -26 c13 -16 25
-56 33 -101 6 -40 16 -74 20 -74 10 0 12 12 9 53 -1 15 4 35 10 43 9 10 9 14
1 14 -15 0 -14 53 1 68 9 9 9 12 0 12 -7 0 -12 15 -12 38 0 32 7 45 45 82 45
44 56 74 33 83 -21 7 -51 -8 -88 -47 -19 -20 -40 -36 -47 -36 -6 0 -23 20 -37
44 -30 51 -80 97 -139 128 -53 27 -183 35 -239 15z m387 -207 c3 -5 15 -10 26
-10 16 0 19 -7 19 -41 0 -35 -2 -40 -17 -34 -10 4 -23 8 -30 8 -13 0 -44 73
-35 81 9 9 30 7 37 -4z m-352 -14 c17 -13 13 -15 -39 -27 -31 -7 -52 -15 -46
-17 17 -5 4 -22 -18 -22 -10 0 -20 -7 -24 -15 -3 -8 -15 -15 -27 -15 -15 0
-19 4 -15 16 3 9 6 22 6 29 0 9 17 16 46 21 33 5 48 12 51 25 6 22 40 25 66 5z
m-43 -86 c9 -18 8 -20 -15 -20 -23 0 -24 2 -15 20 6 11 13 20 15 20 2 0 9 -9
15 -20z m190 -280 c12 -7 12 -12 2 -22 -10 -10 -15 -10 -22 2 -12 18 -13 30
-2 30 4 0 14 -5 22 -10z"/>
<path d="M810 704 c0 -138 -3 -165 -21 -204 -26 -59 -82 -115 -144 -148 -73
-38 -179 -38 -251 0 -28 15 -66 41 -83 59 -26 25 -36 30 -53 22 -19 -8 -17
-11 24 -52 68 -69 135 -96 238 -96 73 0 93 4 142 28 70 34 131 101 158 173 17
46 20 78 20 203 0 120 -3 151 -15 161 -13 11 -15 -6 -15 -146z"/>
<path d="M1740 803 c0 -29 -3 -34 -12 -25 -30 30 -88 -6 -88 -56 0 -56 55 -93
88 -60 9 9 12 9 12 0 0 -7 8 -12 18 -12 15 0 17 10 14 95 -3 74 -6 95 -18 95
-10 0 -14 -12 -14 -37z m-4 -68 c9 -36 -2 -55 -31 -55 -22 0 -25 4 -25 33 0
38 6 47 31 47 11 0 21 -10 25 -25z"/>
<path d="M1960 745 c0 -87 2 -95 19 -95 17 0 20 8 23 53 3 44 6 52 23 52 17 0
20 -8 23 -52 3 -45 6 -53 23 -53 18 0 19 5 13 58 -4 31 -11 63 -17 70 -11 14
-43 16 -52 2 -13 -21 -21 -9 -17 25 4 30 1 35 -17 35 -20 0 -21 -5 -21 -95z"/>
<path d="M2778 758 c2 -46 5 -89 7 -95 6 -18 45 -16 45 2 0 8 -4 15 -10 15 -6
0 -10 33 -10 80 0 70 -2 80 -18 80 -15 0 -17 -9 -14 -82z"/>
<path d="M2948 805 l4 -34 -32 12 c-29 11 -33 10 -51 -12 -21 -26 -25 -71 -9
-102 12 -22 59 -26 78 -7 9 9 12 9 12 0 0 -7 7 -12 15 -12 12 0 15 17 15 95 0
85 -2 95 -18 95 -15 0 -17 -6 -14 -35z m-10 -57 c16 -16 15 -44 -3 -62 -31
-30 -67 13 -45 54 12 23 30 26 48 8z"/>
<path d="M1000 740 c0 -83 1 -90 20 -90 17 0 20 7 20 40 0 61 39 52 55 -13 5
-18 14 -27 27 -27 15 0 18 5 13 23 -4 12 -14 32 -21 45 -13 20 -13 23 1 28 18
7 20 55 3 72 -7 7 -36 12 -65 12 l-53 0 0 -90z m95 35 c0 -14 -8 -21 -27 -23
-24 -3 -28 0 -28 23 0 23 4 26 28 23 19 -2 27 -9 27 -23z"/>
<path d="M1800 815 c0 -9 9 -15 25 -15 24 0 25 -2 25 -75 0 -70 2 -75 21 -75
20 0 21 4 17 75 l-3 75 27 0 c18 0 28 5 28 15 0 12 -14 15 -70 15 -56 0 -70
-3 -70 -15z"/>
<path d="M2260 826 c0 -7 30 -138 36 -158 3 -10 14 -18 24 -18 19 0 40 49 40
92 0 41 17 22 29 -33 10 -51 15 -59 34 -59 20 0 24 10 43 90 20 85 20 90 3 90
-13 0 -20 -13 -28 -50 -6 -28 -11 -58 -11 -67 0 -33 -17 2 -29 60 -9 43 -17
57 -30 57 -13 0 -20 -15 -31 -66 -14 -74 -24 -70 -35 14 -6 42 -11 52 -26 52
-10 0 -19 -2 -19 -4z"/>
<path d="M1180 763 c-16 -20 -20 -36 -16 -57 9 -43 24 -56 66 -56 42 0 57 13
66 56 8 40 -27 84 -66 84 -19 0 -36 -9 -50 -27z m75 -43 c0 -31 -3 -35 -25
-35 -19 0 -26 6 -28 23 -5 36 5 54 30 50 19 -2 23 -9 23 -38z"/>
<path d="M1332 723 c3 -66 4 -68 31 -71 16 -2 35 2 43 9 10 8 14 8 14 0 0 -6
7 -11 15 -11 12 0 15 14 15 70 0 63 -2 70 -20 70 -18 0 -20 -7 -20 -54 0 -35
-5 -56 -12 -59 -28 -9 -38 6 -38 59 0 42 -3 54 -15 54 -13 0 -15 -12 -13 -67z"/>
<path d="M1490 720 c0 -56 3 -70 15 -70 11 0 15 12 15 44 0 47 19 72 46 62 12
-5 15 -17 12 -56 -2 -42 0 -50 15 -50 14 0 17 9 17 59 0 71 -16 91 -61 74 -16
-6 -29 -7 -29 -2 0 5 -7 9 -15 9 -12 0 -15 -14 -15 -70z"/>
<path d="M2142 774 c-27 -18 -31 -84 -6 -108 19 -20 78 -21 93 -2 16 19 -3 31
-26 17 -11 -6 -24 -6 -35 0 -31 17 -20 29 27 29 41 0 45 2 45 23 0 49 -55 72
-98 41z m66 -31 c2 -9 -7 -13 -27 -13 -30 0 -39 9 -24 24 11 10 46 3 51 -11z"/>
<path d="M2521 764 c-42 -53 -16 -114 48 -114 43 0 58 13 67 56 4 21 0 37 -16
57 -29 36 -71 36 -99 1z m74 -44 c0 -31 -3 -35 -25 -35 -19 0 -26 6 -28 23 -5
36 5 54 30 50 19 -2 23 -9 23 -38z"/>
<path d="M2670 720 c0 -60 2 -70 18 -70 14 0 17 7 14 44 -3 36 0 46 16 55 11
6 22 7 26 4 3 -3 6 3 6 15 0 24 -19 29 -38 10 -9 -9 -12 -9 -12 0 0 7 -7 12
-15 12 -12 0 -15 -14 -15 -70z"/>
<path d="M112 710 c-47 -59 -108 -167 -99 -176 2 -2 18 24 36 59 18 35 53 87
78 116 25 29 43 54 40 57 -3 3 -27 -22 -55 -56z"/>
<path d="M136 580 c-16 -39 -12 -57 18 -71 19 -9 19 -9 4 4 -21 16 -23 39 -7
69 6 11 8 22 5 25 -3 3 -12 -9 -20 -27z"/>
<path d="M10 443 c1 -48 108 -70 185 -37 45 18 42 27 -6 14 -57 -17 -118 -12
-150 11 -16 11 -29 17 -29 12z"/>
</g>
</svg>
