<?xml version="1.0" standalone="no"?>
<!DOCTYPE svg PUBLIC "-//W3C//DTD SVG 20010904//EN"
 "http://www.w3.org/TR/2001/REC-SVG-20010904/DTD/svg10.dtd">
<svg version="1.0" xmlns="http://www.w3.org/2000/svg"
 width="300.000000pt" height="300.000000pt" viewBox="0 0 300.000000 300.000000"
 preserveAspectRatio="xMidYMid meet">
<metadata>
Created by potrace 1.10, written by Peter Selinger 2001-2011
</metadata>
<g transform="translate(0.000000,300.000000) scale(0.100000,-0.100000)"
fill="#000000" stroke="none">
<path d="M425 2130 c-112 -35 -212 -144 -235 -256 -13 -62 -11 -380 3 -401 4
-7 13 -10 20 -7 9 3 12 58 12 212 0 196 1 209 23 254 86 175 302 229 454 114
48 -37 84 -84 72 -94 -4 -4 -9 -1 -11 6 -4 9 -9 10 -17 3 -9 -8 -22 -3 -45 17
-64 53 -111 72 -181 72 -114 0 -199 -58 -235 -161 -16 -43 -21 -346 -7 -381 6
-15 12 -14 52 13 25 17 45 38 46 47 2 31 4 32 29 16 25 -16 27 -16 63 13 20
16 42 40 48 52 9 18 13 19 23 7 13 -16 -17 -43 -134 -118 -200 -129 -315 -156
-315 -76 0 31 48 129 70 143 5 3 10 21 10 38 l-1 32 -36 -40 c-47 -52 -93
-150 -93 -197 0 -106 152 -86 337 44 57 40 263 216 263 224 0 8 -8 3 -45 -26
-33 -26 -39 -28 -52 -15 -8 8 -16 15 -19 15 -2 0 -25 -22 -51 -50 -44 -48 -48
-49 -69 -35 -13 8 -25 15 -27 15 -2 0 -17 -18 -32 -40 -52 -75 -68 -50 -63
100 l3 95 140 6 c179 8 234 21 121 29 -54 4 -82 11 -90 22 -6 8 -21 18 -34 22
-41 13 -14 23 40 14 116 -18 181 -21 174 -9 -4 6 -16 11 -27 11 -11 0 -28 8
-37 17 -16 15 -14 16 30 10 27 -4 50 -2 53 3 4 6 -15 10 -47 10 -36 0 -63 6
-83 20 -16 11 -40 20 -52 20 -13 0 -23 4 -23 9 0 17 -34 22 -46 7 -6 -9 -14
-13 -17 -9 -4 3 -7 1 -7 -7 0 -10 -3 -10 -15 0 -19 16 -35 4 -35 -26 0 -15 -6
-24 -15 -24 -24 0 -18 17 22 61 92 102 225 112 338 25 19 -14 16 -15 -31 -9
-77 8 -72 -10 9 -35 75 -23 128 -55 114 -69 -5 -4 -13 -1 -18 7 -9 12 -10 12
-5 -3 4 -13 -7 -32 -36 -63 -41 -43 -43 -44 -93 -39 -43 5 -47 4 -31 -7 53
-37 70 -54 83 -86 18 -43 28 -34 25 21 -1 36 3 45 28 65 l30 24 0 -120 c0
-157 -3 -164 -48 -107 -25 32 -40 44 -51 39 -9 -3 -21 -7 -28 -7 -7 0 -11 -5
-10 -10 1 -5 -4 -12 -10 -14 -15 -6 -17 23 -3 32 6 4 5 12 -4 21 -18 18 -32
19 -17 1 8 -11 4 -20 -21 -42 -30 -27 -30 -29 -12 -42 16 -12 17 -15 4 -23
-14 -9 -7 -14 13 -11 4 0 7 -3 7 -9 0 -5 5 -10 12 -10 6 0 20 -7 29 -16 17
-15 18 -15 14 5 -2 11 0 23 5 26 5 3 7 17 4 30 -2 14 0 25 6 25 5 0 10 7 10
15 0 24 18 18 37 -12 10 -16 25 -35 34 -43 15 -14 15 -19 3 -43 -8 -15 -19
-27 -24 -27 -6 0 -10 -7 -10 -15 0 -19 -80 -71 -122 -80 -17 -4 -35 -2 -41 4
-8 8 -7 11 2 11 10 0 11 3 2 13 -6 8 -8 16 -5 19 2 3 -2 8 -11 11 -10 5 -15 0
-15 -14 0 -11 -6 -22 -14 -25 -18 -7 -76 23 -76 38 0 7 17 27 37 44 35 31 39
32 56 17 10 -9 15 -23 13 -30 -7 -18 18 -27 41 -15 17 10 17 11 1 17 -10 4
-18 13 -18 20 0 7 -8 16 -17 19 -12 5 -13 10 -5 18 6 6 8 17 5 24 -6 17 -46
-8 -109 -69 -32 -30 -47 -37 -63 -32 -57 18 12 -48 79 -76 52 -21 147 -17 196
9 47 24 100 81 120 128 10 23 14 77 14 172 0 133 1 139 24 161 l24 22 20 -26
c13 -16 25 -56 33 -101 9 -55 15 -72 24 -64 6 5 10 23 7 40 -2 17 1 37 8 45 9
10 9 15 1 15 -15 0 -14 53 1 68 9 9 9 12 0 12 -7 0 -12 15 -12 38 0 32 7 45
45 82 46 45 57 76 30 86 -17 7 -44 -9 -93 -55 -18 -17 -37 -31 -42 -31 -5 0
-18 17 -29 38 -25 48 -84 104 -141 133 -50 25 -181 36 -235 19z m380 -210 c3
-5 15 -10 26 -10 16 0 19 -7 19 -40 0 -22 -2 -40 -5 -40 -16 0 -65 32 -61 39
3 4 -1 17 -9 27 -8 10 -15 22 -15 27 0 11 38 9 45 -3z m-359 -11 c9 -15 0 -20
-53 -35 -27 -7 -40 -13 -30 -13 22 -1 13 -21 -9 -21 -9 0 -22 -7 -30 -15 -21
-20 -48 -20 -40 1 3 9 6 22 6 29 0 9 17 16 46 21 31 4 48 12 51 23 5 19 49 26
59 10z m-32 -100 c-7 -11 -44 -12 -44 -1 0 4 5 13 12 20 13 13 42 -4 32 -19z"/>
<path d="M810 1644 c0 -146 -2 -163 -24 -209 -50 -106 -152 -170 -271 -169
-79 0 -130 21 -195 80 -30 27 -44 34 -61 29 -20 -7 -19 -10 22 -51 24 -25 69
-57 99 -72 47 -23 68 -27 140 -27 79 0 90 3 150 36 73 40 130 106 155 178 21
63 22 333 0 351 -13 11 -15 -6 -15 -146z"/>
<path d="M1740 1743 c0 -29 -3 -34 -12 -25 -33 33 -88 -4 -88 -58 0 -54 55
-91 88 -58 9 9 12 9 12 0 0 -7 8 -12 18 -12 15 0 17 10 14 95 -3 74 -6 95 -18
95 -10 0 -14 -12 -14 -37z m-4 -68 c9 -36 -2 -57 -28 -53 -39 5 -38 78 1 78
14 0 23 -9 27 -25z"/>
<path d="M1960 1685 c0 -87 2 -95 19 -95 17 0 20 8 23 53 3 45 6 52 26 55 21
3 22 0 22 -52 0 -49 2 -56 20 -56 19 0 20 4 14 58 -4 31 -11 63 -17 70 -11 14
-43 16 -52 2 -13 -22 -23 -8 -18 25 5 31 3 35 -16 35 -20 0 -21 -5 -21 -95z"/>
<path d="M2778 1698 c2 -46 5 -89 7 -95 6 -18 45 -16 45 2 0 8 -4 15 -10 15
-6 0 -10 33 -10 80 0 70 -2 80 -18 80 -15 0 -17 -9 -14 -82z"/>
<path d="M2948 1743 c3 -31 2 -36 -9 -25 -19 18 -53 15 -72 -6 -21 -23 -22
-86 -1 -106 18 -19 55 -21 72 -4 9 9 12 9 12 0 0 -7 7 -12 15 -12 12 0 15 17
15 95 0 85 -2 95 -18 95 -15 0 -17 -7 -14 -37z m-8 -58 c20 -24 4 -65 -25 -65
-18 0 -26 7 -31 25 -7 27 9 55 31 55 7 0 18 -7 25 -15z"/>
<path d="M1000 1680 c0 -83 1 -90 20 -90 17 0 20 7 20 40 0 61 39 52 55 -13 5
-17 14 -27 26 -27 24 0 24 17 -1 58 -17 28 -18 33 -5 38 18 7 20 55 3 72 -7 7
-36 12 -65 12 l-53 0 0 -90z m98 38 c-2 -17 -11 -24 -30 -26 -24 -3 -28 0 -28
22 0 22 4 26 31 26 26 0 30 -3 27 -22z"/>
<path d="M1800 1755 c0 -9 9 -15 25 -15 24 0 25 -2 25 -75 0 -70 2 -75 21 -75
20 0 21 4 17 75 l-3 75 27 0 c18 0 28 5 28 15 0 12 -14 15 -70 15 -56 0 -70
-3 -70 -15z"/>
<path d="M2260 1766 c0 -7 30 -138 36 -158 3 -10 14 -18 24 -18 19 0 40 49 40
92 0 41 17 22 29 -33 10 -51 15 -59 34 -59 20 0 24 10 43 90 20 85 20 90 3 90
-14 0 -21 -13 -30 -60 -6 -33 -15 -60 -18 -60 -4 0 -13 27 -19 60 -10 46 -17
60 -31 60 -13 0 -20 -14 -31 -66 -14 -74 -24 -70 -35 14 -6 42 -11 52 -26 52
-10 0 -19 -2 -19 -4z"/>
<path d="M1180 1703 c-38 -49 -10 -113 50 -113 36 0 59 19 66 55 8 41 -26 85
-66 85 -19 0 -36 -9 -50 -27z m75 -43 c0 -31 -3 -35 -25 -35 -19 0 -26 6 -28
23 -5 36 5 54 30 50 19 -2 23 -9 23 -38z"/>
<path d="M1332 1663 c3 -66 4 -68 31 -71 16 -2 35 2 43 9 10 8 14 8 14 0 0 -6
7 -11 15 -11 12 0 15 14 15 70 0 63 -2 70 -20 70 -18 0 -20 -7 -20 -55 0 -52
-1 -55 -25 -55 -24 0 -25 3 -25 55 0 43 -3 55 -15 55 -13 0 -15 -12 -13 -67z"/>
<path d="M1490 1660 c0 -61 2 -70 18 -70 15 0 18 6 14 30 -7 50 5 82 31 78 20
-3 22 -9 22 -56 0 -43 3 -52 18 -52 14 0 17 9 17 58 0 62 -11 82 -45 82 -12 0
-26 -5 -33 -12 -9 -9 -12 -9 -12 0 0 7 -7 12 -15 12 -12 0 -15 -14 -15 -70z"/>
<path d="M2137 1712 c-21 -23 -22 -86 -1 -106 20 -20 78 -21 94 -1 13 16 12
17 -39 19 -54 2 -51 26 3 26 42 0 46 2 46 23 0 50 -70 76 -103 39z m71 -29 c2
-9 -7 -13 -27 -13 -30 0 -39 9 -24 24 11 10 46 3 51 -11z"/>
<path d="M2526 1714 c-25 -24 -31 -64 -15 -93 11 -20 24 -27 55 -29 45 -3 61
8 70 54 12 62 -68 111 -110 68z m69 -54 c0 -31 -3 -35 -25 -35 -19 0 -26 6
-28 23 -5 36 5 54 30 50 19 -2 23 -9 23 -38z"/>
<path d="M2670 1660 c0 -60 2 -70 18 -70 14 0 17 7 14 40 -4 43 12 74 35 66 8
-3 13 2 13 14 0 22 -20 26 -38 8 -9 -9 -12 -9 -12 0 0 7 -7 12 -15 12 -12 0
-15 -14 -15 -70z"/>
<path d="M111 1648 c-51 -62 -108 -164 -99 -174 3 -2 19 24 36 58 17 35 52 87
78 116 25 29 44 55 41 58 -3 3 -28 -23 -56 -58z"/>
<path d="M140 1530 c-14 -26 -9 -72 8 -78 11 -3 11 0 1 16 -10 16 -10 26 -1
48 15 32 8 45 -8 14z"/>
<path d="M10 1382 c0 -6 12 -20 28 -32 22 -18 36 -21 82 -17 55 5 117 23 108
32 -2 3 -20 0 -39 -5 -54 -16 -109 -12 -145 11 -19 11 -34 16 -34 11z"/>
</g>
</svg>
