<svg xmlns="http://www.w3.org/2000/svg" width="500" height="238" viewBox="0 0 500 238" version="1.1"><path d="M 75.500 38.955 C 53.449 43.690, 36.126 61.388, 31.407 84 C 30.127 90.135, 29.933 96.414, 30.342 118.500 C 30.617 133.350, 31.154 146.963, 31.535 148.750 C 32.196 151.856, 32.092 152, 29.185 152 C 26.018 152, 23 149.819, 23 147.530 C 23 146.800, 24.350 143.637, 26 140.500 C 28.774 135.226, 28.997 134.033, 28.957 124.648 L 28.915 114.500 24.889 119 C 14.605 130.494, 7.128 144.495, 6.280 153.846 C 5.787 159.285, 5.958 159.922, 8.758 163.055 C 11.547 166.176, 12.287 166.451, 18.924 166.826 C 36.603 167.825, 60.295 153.835, 94.494 122.200 L 107.487 110.181 110.390 115.590 C 114.657 123.543, 116.432 122.899, 115.733 113.651 L 115.177 106.303 119.839 102.706 L 124.500 99.110 124.804 115.805 C 124.972 124.987, 124.815 134.962, 124.455 137.970 L 123.801 143.441 120.151 139.414 C 118.143 137.200, 115.057 133.704, 113.293 131.646 C 110.129 127.954, 110.046 127.925, 107.098 129.449 C 104.276 130.909, 104.026 130.876, 102.610 128.853 C 101.785 127.676, 99.982 125.972, 98.604 125.068 L 96.097 123.424 83.799 135.482 C 72.965 146.104, 65.379 152.513, 56.965 158.152 L 54.500 159.804 57.876 163.330 C 62.583 168.245, 71.299 172.637, 79.261 174.104 C 96.778 177.332, 115.916 167.084, 123.804 150.253 C 126.459 144.587, 126.505 144.140, 126.815 120.771 L 127.130 97.043 129.700 95.021 C 135.178 90.713, 135.143 90.538, 134.808 120.806 L 134.500 148.612 130.769 156.158 C 115.422 187.193, 74.190 193.542, 51.047 168.435 C 46.972 164.014, 46.917 163.992, 43.970 165.516 C 42.337 166.360, 41 167.498, 41 168.044 C 41 170.160, 53.801 181.659, 59.500 184.661 C 73.249 191.906, 90.091 193.472, 103.625 188.765 C 116.968 184.125, 127.380 175.268, 133.921 162.997 C 139.483 152.562, 140.183 148.615, 140.747 124.500 L 141.262 102.500 143.127 110.500 C 144.152 114.900, 145.237 119.552, 145.537 120.838 C 145.984 122.757, 146.344 122.959, 147.541 121.966 C 148.532 121.144, 149 118.771, 149 114.578 C 149 111.106, 149.526 107.874, 150.200 107.200 C 151.133 106.267, 151.133 105.733, 150.200 104.800 C 148.750 103.350, 148.595 95.368, 150 94.500 C 151.511 93.566, 151.198 92, 149.500 92 C 148.324 92, 148 90.627, 148 85.639 L 148 79.278 154.930 72.840 C 164.653 63.809, 165.829 58, 157.934 58 C 154.204 58, 153.146 58.636, 146.981 64.588 C 142.738 68.685, 139.492 71.049, 138.398 70.838 C 137.431 70.652, 135.341 68.289, 133.753 65.587 C 126.939 53.989, 116.451 45.128, 104.500 40.872 C 97.840 38.500, 82.378 37.478, 75.500 38.955 M 71.977 46.276 C 54.850 52.115, 41.459 66.840, 37.964 83.675 C 36.451 90.962, 37.049 146.453, 38.658 148.059 C 39.534 148.935, 40.706 148.922, 43.476 148.008 C 46.366 147.054, 46.968 146.452, 46.336 145.150 C 45.895 144.242, 45.388 130.757, 45.210 115.181 C 44.930 90.828, 45.119 86.137, 46.559 81.681 C 50.121 70.652, 58.571 60.967, 68.825 56.160 C 73.939 53.763, 75.637 53.500, 86 53.500 C 96.335 53.500, 98.069 53.767, 103.120 56.135 C 106.211 57.585, 110.599 60.449, 112.870 62.502 C 115.142 64.554, 117 65.871, 117 65.428 C 117 64.985, 117.918 65.608, 119.039 66.811 C 121.294 69.232, 122.546 69.543, 123.543 67.930 C 123.907 67.341, 125.164 66.505, 126.336 66.071 C 128.304 65.343, 127.969 64.791, 121.984 58.882 C 118.418 55.362, 113.216 51.263, 110.425 49.774 C 98.971 43.662, 83.715 42.274, 71.977 46.276 M 79.226 56.112 C 67.179 58.118, 53.685 68.800, 50.550 78.813 C 49.879 80.955, 49.979 81.030, 51.913 79.823 C 53.061 79.106, 54 77.552, 54 76.370 C 54 75.188, 54.871 73.159, 55.935 71.861 C 57.597 69.833, 58.155 69.674, 59.889 70.730 C 61.159 71.503, 62.132 71.596, 62.513 70.980 C 62.846 70.441, 63.943 70, 64.952 70 C 65.961 70, 67.045 69.325, 67.362 68.500 C 67.699 67.620, 69.199 67, 70.990 67 C 73.265 67, 74.329 67.629, 75.167 69.468 C 75.987 71.267, 76.703 71.706, 77.809 71.087 C 79.465 70.160, 84.554 71.942, 88.885 74.965 C 90.431 76.044, 95.259 77.318, 100.694 78.081 C 110.361 79.438, 112.131 80.951, 104.191 81.070 C 100.650 81.123, 99.990 81.351, 101.500 82 C 103.155 82.711, 102.896 82.885, 100 83.009 C 96.172 83.172, 96.436 83.362, 102.750 84.985 C 105.088 85.586, 107 86.477, 107 86.967 C 107 88.900, 95.735 89.303, 88.563 87.626 C 84.678 86.718, 79.475 85.994, 77 86.019 C 73.042 86.058, 72.711 86.224, 74.250 87.392 C 75.213 88.123, 76 89.256, 76 89.911 C 76 92.043, 82.292 93.766, 92.758 94.499 C 98.400 94.894, 103.228 95.561, 103.488 95.981 C 104.061 96.908, 98.143 97.961, 92 98.024 C 87.559 98.070, 87.533 98.090, 90 99.555 C 92.335 100.940, 91.938 101.029, 84 100.893 C 79.325 100.813, 69.088 100.804, 61.250 100.873 L 47 101 47.070 118.750 C 47.109 128.512, 47.446 137.175, 47.820 138 C 49.426 141.545, 55.098 137.721, 59.640 130.032 C 62.097 125.873, 63.627 125.613, 67.641 128.675 L 71.138 131.343 74.819 127.398 C 76.844 125.229, 80.422 121.252, 82.772 118.561 L 87.044 113.668 89.941 116.443 C 91.794 118.219, 93.317 118.935, 94.169 118.431 C 96.776 116.889, 106 109.517, 106 108.974 C 106 108.671, 103.525 106.923, 100.500 105.089 C 92.139 100.022, 93.247 98.288, 103.685 100.106 L 110.445 101.283 117.289 93.976 C 123.096 87.778, 124.041 86.277, 123.522 84.085 C 122.213 78.559, 119.880 76.880, 108.485 73.262 C 102.443 71.343, 97.302 69.589, 97.060 69.363 C 96.817 69.137, 97.368 68.203, 98.283 67.288 C 99.719 65.852, 100.909 65.756, 106.940 66.590 L 113.932 67.556 111.879 65.371 C 108.406 61.674, 98.762 57.167, 91.966 56.064 C 88.410 55.487, 85.275 55.064, 85 55.124 C 84.725 55.185, 82.127 55.629, 79.226 56.112 M 51.493 83.989 C 51.834 84.541, 51.463 84.731, 50.653 84.420 C 48.880 83.740, 48.458 84.417, 47.562 89.376 C 46.866 93.232, 46.876 93.248, 49.681 92.552 C 51.231 92.167, 53.429 90.985, 54.564 89.926 C 55.700 88.867, 57.361 88, 58.255 88 C 59.150 88, 60.160 87.550, 60.500 87 C 60.863 86.413, 59.803 86, 57.937 86 C 55.222 86, 54.938 85.780, 56 84.500 C 57.062 83.220, 56.778 83, 54.063 83 C 52.222 83, 51.139 83.416, 51.493 83.989 M 290 104.155 C 290 110.054, 289.924 110.241, 288.171 108.655 C 286.328 106.987, 281.538 106.472, 278.545 107.621 C 275.878 108.645, 274 113.551, 274 119.496 C 274 124.103, 274.433 125.524, 276.455 127.545 C 279.384 130.475, 285.366 130.883, 288.171 128.345 C 289.873 126.805, 290 126.805, 290 128.345 C 290 129.517, 290.875 130, 293 130 L 296 130 296 114 L 296 98 293 98 L 290 98 290 104.155 M 327 114 L 327 130 330 130 L 333 130 333 122.200 C 333 113.674, 333.836 112, 338.093 112 C 341.496 112, 342 113.366, 342 122.582 L 342 130 345.136 130 L 348.273 130 347.775 120.482 C 347.395 113.232, 346.849 110.491, 345.483 108.982 C 343.256 106.520, 337.387 106.340, 334.829 108.655 C 333.076 110.241, 333 110.054, 333 104.155 L 333 98 330 98 L 327 98 327 114 M 463 112.800 C 463 129.065, 463.310 130, 468.700 130 C 472.561 130, 473.300 127.293, 470 125.232 C 468.167 124.087, 468 122.900, 468 110.992 L 468 98 465.500 98 L 463 98 463 112.800 M 491 103.500 C 491 108.591, 489.989 110.410, 488.500 108 C 488.160 107.450, 486.149 107, 484.030 107 C 478.483 107, 475 111.291, 475 118.126 C 475 123.516, 476.969 128.390, 479.545 129.379 C 482.538 130.528, 487.328 130.013, 489.171 128.345 C 490.873 126.805, 491 126.805, 491 128.345 C 491 129.517, 491.875 130, 494 130 L 497 130 497 114 L 497 98 494 98 C 491.030 98, 491 98.056, 491 103.500 M 167 115 L 167 130 170 130 L 173 130 173 123.969 C 173 117.297, 174.261 115.886, 178.496 117.816 C 180.147 118.569, 181.395 120.578, 182.615 124.448 C 184.214 129.520, 184.618 130, 187.291 130 C 189.974 130, 190.163 129.772, 189.566 127.250 C 189.208 125.737, 187.885 122.377, 186.627 119.783 L 184.339 115.066 186.669 113.040 C 189.808 110.311, 189.753 105.662, 186.545 102.455 C 184.322 100.231, 183.285 100, 175.545 100 L 167 100 167 115 M 300 102.500 C 300 104.750, 300.400 105, 304 105 L 308 105 308 117.500 L 308 130 311 130 L 314 130 314 117.500 L 314 105 318.500 105 C 322.633 105, 323 104.796, 323 102.500 L 323 100 311.500 100 L 300 100 300 102.500 M 377 101.362 C 377 102.184, 378.350 108.698, 380 115.839 C 381.650 122.979, 383 129.086, 383 129.411 C 383 129.735, 384.558 130, 386.461 130 C 390.223 130, 389.856 130.682, 393.049 117.750 C 394.910 110.216, 395.203 110.352, 397.890 120 L 400.535 129.500 404.017 129.793 L 407.500 130.086 410.426 116.793 C 412.036 109.482, 413.551 102.713, 413.793 101.750 C 414.142 100.363, 413.586 100, 411.117 100 C 409.086 100, 408 100.497, 408 101.424 C 408 102.208, 407.030 107.045, 405.844 112.174 L 403.688 121.500 401.907 115 C 400.928 111.425, 399.623 106.560, 399.008 104.189 C 398.010 100.339, 397.607 99.911, 395.244 100.189 C 392.770 100.480, 392.424 101.185, 389.937 111 C 386.975 122.695, 387.197 122.808, 384.082 108.011 C 382.609 101.017, 382.311 100.478, 379.750 100.184 C 377.836 99.963, 377 100.321, 377 101.362 M 173.394 105.416 C 173.095 106.194, 172.997 108.107, 173.175 109.666 C 173.431 111.901, 174.071 112.566, 176.201 112.812 C 182.461 113.534, 185.953 107.073, 180.435 104.975 C 176.800 103.593, 174.027 103.766, 173.394 105.416 M 198.888 108.500 C 193.170 111.607, 192.301 123.282, 197.457 127.717 C 201.186 130.924, 208.829 130.911, 212.573 127.691 C 217.659 123.316, 216.713 111.057, 211.055 108.030 C 208.339 106.576, 201.975 106.822, 198.888 108.500 M 221.156 117.082 C 221.449 125.669, 221.788 127.374, 223.441 128.582 C 226.070 130.503, 231.930 130.373, 234.171 128.345 C 235.873 126.805, 236 126.805, 236 128.345 C 236 129.444, 236.840 130, 238.500 130 L 241 130 241 118.500 L 241 107 238.500 107 C 236.092 107, 236 107.238, 236 113.435 C 236 123.435, 233.547 127.433, 228.928 124.961 C 227.257 124.067, 227 122.800, 227 115.465 L 227 107 223.906 107 L 220.813 107 221.156 117.082 M 248 118.500 L 248 130 251 130 L 254 130 254 122.200 C 254 113.674, 254.836 112, 259.093 112 C 262.496 112, 263 113.366, 263 122.582 L 263 130 266.119 130 L 269.239 130 268.826 120.557 C 268.502 113.150, 268.011 110.670, 266.551 109.057 C 264.275 106.541, 257.873 106.243, 255.948 108.563 C 254.771 109.981, 254.569 109.981, 253.775 108.563 C 253.294 107.703, 251.798 107, 250.450 107 L 248 107 248 118.500 M 355.923 109.923 C 353.382 112.465, 353 113.584, 353 118.500 C 353 123.416, 353.382 124.535, 355.923 127.077 C 358.351 129.505, 359.668 130, 363.701 130 C 368.710 130, 373 127.947, 373 125.550 C 373 123.448, 370.365 122.971, 367.271 124.515 C 363.687 126.302, 360.552 125.507, 359.162 122.457 L 358.081 120.083 365.790 119.791 L 373.500 119.500 373.269 115.500 C 372.950 109.989, 369.469 107, 363.367 107 C 359.704 107, 358.292 107.554, 355.923 109.923 M 422.303 108.197 C 419.771 109.420, 417 114.674, 417 118.252 C 417 122.288, 418.998 126.768, 421.540 128.434 C 422.854 129.295, 426.005 130, 428.542 130 C 432.306 130, 433.691 129.463, 436.077 127.077 C 438.618 124.535, 439 123.416, 439 118.500 C 439 113.584, 438.618 112.465, 436.077 109.923 C 433.712 107.559, 432.327 107.013, 428.827 107.068 C 426.447 107.105, 423.511 107.613, 422.303 108.197 M 445 118.500 L 445 130 448 130 L 451 130 451 122.035 C 451 114.994, 451.241 113.941, 453.078 112.958 C 454.221 112.346, 455.759 112.077, 456.495 112.360 C 457.842 112.877, 459 111.054, 459 108.418 C 459 106.521, 455.012 106.603, 452.223 108.557 C 450.211 109.966, 450 109.966, 450 108.557 C 450 107.563, 449.096 107, 447.500 107 L 445 107 445 118.500 M 360.750 112.080 C 357.337 114.068, 358.692 116, 363.500 116 C 368.391 116, 369.698 113.979, 366.066 112.035 C 363.702 110.770, 362.988 110.776, 360.750 112.080 M 201.200 113.200 C 200.540 113.860, 200 116.325, 200 118.677 C 200 122.136, 200.478 123.267, 202.500 124.592 C 204.816 126.109, 205.184 126.109, 207.500 124.592 C 209.522 123.267, 210 122.136, 210 118.677 C 210 116.325, 209.460 113.860, 208.800 113.200 C 207.253 111.653, 202.747 111.653, 201.200 113.200 M 281.309 113.199 C 278.492 116.792, 279.460 124.364, 282.850 125.251 C 287.859 126.560, 291.088 121.803, 289.344 115.683 C 288.611 113.111, 287.850 112.442, 285.383 112.199 C 283.704 112.033, 281.870 112.483, 281.309 113.199 M 424.066 113.876 C 421.449 118.767, 424.716 127.091, 428.659 125.577 C 429.487 125.260, 430.542 125, 431.004 125 C 431.467 125, 432.360 123.438, 432.991 121.528 C 434.626 116.575, 432.639 112.612, 428.309 112.192 C 425.959 111.963, 424.856 112.401, 424.066 113.876 M 482.200 113.200 C 481.540 113.860, 481 116.309, 481 118.643 C 481 121.895, 481.520 123.251, 483.223 124.443 C 486.083 126.447, 486.592 126.408, 489 124 C 491.174 121.826, 491.632 117.049, 489.965 113.934 C 488.792 111.742, 484.101 111.299, 482.200 113.200" stroke="none" fill="#1a3559" fill-rule="evenodd"/></svg>