<?xml version="1.0" encoding="UTF-8"?>
<svg version="1.1" xmlns="http://www.w3.org/2000/svg" width="500" height="238">
<path d="M0 0 C165 0 330 0 500 0 C500 78.54 500 157.08 500 238 C335 238 170 238 0 238 C0 159.46 0 80.92 0 0 Z " fill="#FEFEFE" transform="translate(0,0)"/>
<path d="M0 0 C6.55963352 5.383247 12.46418598 12.92126787 14.44140625 21.26953125 C19.52697119 19.96839987 22.12148399 18.01239317 25.69140625 14.20703125 C31.23423775 8.35346526 31.23423775 8.35346526 34.3515625 8.13671875 C40.33029514 8.15842014 40.33029514 8.15842014 41.44140625 9.26953125 C41.06364946 15.81731561 39.19585322 18.76159121 34.43359375 23.09765625 C32.45373914 24.84333451 30.45125711 26.55862846 28.44140625 28.26953125 C26.56315734 30.14778016 27.05038228 33.30888401 26.87890625 35.83203125 C26.79511719 37.02957031 26.71132812 38.22710937 26.625 39.4609375 C26.56441406 40.38777344 26.50382813 41.31460938 26.44140625 42.26953125 C27.43140625 42.26953125 28.42140625 42.26953125 29.44140625 42.26953125 C28.78140625 46.22953125 28.12140625 50.18953125 27.44140625 54.26953125 C28.10140625 54.26953125 28.76140625 54.26953125 29.44140625 54.26953125 C29.28414062 54.79289062 29.126875 55.31625 28.96484375 55.85546875 C28.07305169 59.96836049 28.09711803 64.17522895 27.91796875 68.37109375 C27.76070312 69.32757813 27.6034375 70.2840625 27.44140625 71.26953125 C26.45140625 71.92953125 25.46140625 72.58953125 24.44140625 73.26953125 C22.46140625 65.84453125 22.46140625 65.84453125 20.44140625 58.26953125 C20.42722656 60.76644531 20.41304687 63.26335937 20.3984375 65.8359375 C20.36764725 68.30864062 20.32860364 70.78108917 20.28881836 73.25366211 C20.26590853 74.94562492 20.25130749 76.63772488 20.24584961 78.32983398 C20.1763611 96.34873922 16.41405341 113.00875938 3.62890625 126.64453125 C-0.6540057 130.63749751 -5.42044972 133.50726502 -10.55859375 136.26953125 C-11.25082031 136.66140625 -11.94304687 137.05328125 -12.65625 137.45703125 C-24.45475429 143.83713695 -38.84914226 144.04897624 -51.58984375 140.3671875 C-62.83145045 136.21075134 -73.8270135 129.45265424 -80.55859375 119.26953125 C-80.55859375 118.60953125 -80.55859375 117.94953125 -80.55859375 117.26953125 C-78.44512645 115.98635467 -77.05770777 115.25393394 -74.55859375 115.33203125 C-72.55859375 116.26953125 -72.55859375 116.26953125 -70.93359375 118.39453125 C-63.8951765 126.91472056 -52.40185878 132.55559581 -41.55859375 134.26953125 C-26.25243188 135.69336026 -13.06240634 130.45443727 -1.24609375 121.01953125 C7.17418208 113.19569162 12.38613468 102.75599668 12.8737793 91.29077148 C12.91476818 89.05344178 12.9405242 86.81579466 12.953125 84.578125 C12.9710762 83.3922731 12.9890274 82.2064212 13.00752258 80.9846344 C13.06137394 77.22546869 13.09544124 73.46642814 13.12890625 69.70703125 C13.16210145 67.14646706 13.19659312 64.58591932 13.23242188 62.02539062 C13.31708601 55.77354979 13.38554185 49.52169224 13.44140625 43.26953125 C12.49265625 43.76453125 11.54390625 44.25953125 10.56640625 44.76953125 C7.44140625 46.26953125 7.44140625 46.26953125 5.44140625 46.26953125 C5.47282715 48.22004395 5.47282715 48.22004395 5.50488281 50.20996094 C5.57788757 55.08533493 5.62342389 59.9606617 5.66113281 64.83642578 C5.68111156 66.93709468 5.70830414 69.03770895 5.74316406 71.13818359 C6.00108766 87.09151671 5.97631396 100.0284047 -5.55859375 112.26953125 C-13.37950911 120.31390133 -21.97922843 124.31006826 -33.15893555 124.56201172 C-46.62848929 124.6688199 -55.18686181 121.84395539 -65.28125 112.7109375 C-66.55859375 111.26953125 -66.55859375 111.26953125 -66.55859375 109.26953125 C-64.50472989 107.71698032 -62.44225856 106.26738564 -60.30859375 104.83203125 C-51.6827733 98.83848293 -44.12201177 91.9920585 -36.83984375 84.42578125 C-36.21078125 83.77770508 -35.58171875 83.12962891 -34.93359375 82.46191406 C-33.70251412 81.18659251 -32.48326227 79.89972513 -31.27734375 78.60058594 C-29.58984375 76.84765625 -29.58984375 76.84765625 -26.55859375 74.26953125 C-24.36914063 74.60839844 -24.36914063 74.60839844 -22.55859375 75.26953125 C-22.55859375 75.92953125 -22.55859375 76.58953125 -22.55859375 77.26953125 C-18.07298631 79.80785336 -18.07298631 79.80785336 -13.16015625 79.5390625 C-12.30164063 79.45011719 -11.443125 79.36117187 -10.55859375 79.26953125 C-8.20703125 81.21875 -8.20703125 81.21875 -5.93359375 83.95703125 C-5.17820312 84.84777344 -4.4228125 85.73851562 -3.64453125 86.65625 C-1.90688636 88.83318713 -0.20857428 91.02576791 1.44140625 93.26953125 C2.34348748 90.56328755 2.56368224 89.03102139 2.55493164 86.25708008 C2.55485611 85.45647659 2.55478058 84.65587311 2.55470276 83.83100891 C2.54954147 82.9715416 2.54438019 82.11207428 2.5390625 81.2265625 C2.53764755 80.34296555 2.5362326 79.45936859 2.53477478 78.54899597 C2.52917694 75.72663997 2.51662486 72.90436328 2.50390625 70.08203125 C2.49889097 68.16862094 2.49432811 66.25520938 2.49023438 64.34179688 C2.47920822 59.65101111 2.46194508 54.96028462 2.44140625 50.26953125 C-0.4717078 52.04055352 -3.13159879 53.86471851 -5.55859375 56.26953125 C-6.51706155 59.90692785 -6.51706155 59.90692785 -6.05859375 63.64453125 C-5.9503125 65.51238281 -5.9503125 65.51238281 -5.83984375 67.41796875 C-5.74703125 68.35898438 -5.65421875 69.3 -5.55859375 70.26953125 C-7.04359375 70.76453125 -7.04359375 70.76453125 -8.55859375 71.26953125 C-10.20859375 67.96953125 -11.85859375 64.66953125 -13.55859375 61.26953125 C-18.65363292 64.79686606 -23.0485518 68.65027798 -27.37109375 73.08203125 C-32.77597646 78.59969234 -38.48037603 83.49554648 -44.55859375 88.26953125 C-45.63931433 89.1507598 -46.71868645 90.03364404 -47.796875 90.91796875 C-62.19056199 102.62431169 -81.35312946 117.51913256 -100.62109375 117.58203125 C-102.40193359 117.60716797 -102.40193359 117.60716797 -104.21875 117.6328125 C-108.61105914 117.15505256 -111.13292874 115.54771367 -114.37109375 112.64453125 C-116.79310656 107.80050563 -116.10422265 103.24490997 -114.71484375 98.21484375 C-110.32205555 85.8378662 -102.86258929 75.47173253 -93.55859375 66.26953125 C-93.22859375 66.26953125 -92.89859375 66.26953125 -92.55859375 66.26953125 C-92.44140445 69.62339886 -92.37101791 72.97673274 -92.30859375 76.33203125 C-92.25832031 77.74645508 -92.25832031 77.74645508 -92.20703125 79.18945312 C-92.11809084 85.5709274 -93.04124926 88.96645802 -96.55859375 94.26953125 C-97.14279498 96.63449043 -97.35952666 98.83095945 -97.55859375 101.26953125 C-95.24859375 101.26953125 -92.93859375 101.26953125 -90.55859375 101.26953125 C-90.62842468 100.69113495 -90.69825562 100.11273865 -90.77020264 99.51681519 C-91.53720014 92.63311023 -91.73477547 85.82491499 -91.76171875 78.90234375 C-91.76741882 77.74636688 -91.7731189 76.59039001 -91.7789917 75.39938354 C-91.78838707 72.96727397 -91.79495377 70.53515198 -91.79882812 68.10302734 C-91.8085472 64.4122068 -91.83962922 60.72194063 -91.87109375 57.03125 C-91.87762419 54.65495118 -91.8828745 52.27864843 -91.88671875 49.90234375 C-91.89906555 48.81446564 -91.91141235 47.72658752 -91.9241333 46.60574341 C-91.87707276 30.17292731 -86.19151109 16.33363991 -74.8203125 4.421875 C-71.6017038 1.35891577 -68.27592498 -1.3007904 -64.55859375 -3.73046875 C-63.69814453 -4.29701172 -63.69814453 -4.29701172 -62.8203125 -4.875 C-42.66687921 -17.24503837 -18.6046201 -12.58297207 0 0 Z " fill="#152F53" transform="translate(121.55859375,49.73046875)"/>
<path d="M0 0 C10.96999578 -0.56346688 20.3803537 3.22285939 29.140625 9.6015625 C29.71167969 10.12492187 30.28273438 10.64828125 30.87109375 11.1875 C30.87109375 11.8475 30.87109375 12.5075 30.87109375 13.1875 C25.92109375 12.8575 20.97109375 12.5275 15.87109375 12.1875 C15.21109375 13.1775 14.55109375 14.1675 13.87109375 15.1875 C14.44214844 15.28546875 15.01320312 15.3834375 15.6015625 15.484375 C20.74330587 16.43261384 25.77934027 17.63040316 30.80859375 19.0625 C31.89011719 19.36929688 32.97164063 19.67609375 34.0859375 19.9921875 C37.18040823 21.32024927 38.23065683 22.28849835 39.87109375 25.1875 C41.341686 30.17117375 41.341686 30.17117375 40.87109375 33.1875 C39.38563224 35.28778999 37.7696566 36.78286508 35.8046875 38.44140625 C33.82923636 40.22529849 32.7633264 41.94124605 31.37109375 44.1875 C29.95703125 45.94140625 29.95703125 45.94140625 27.87109375 47.1875 C22.75318648 47.48379989 17.92812778 46.95313238 12.87109375 46.1875 C16.17109375 48.4975 19.47109375 50.8075 22.87109375 53.1875 C20.76883036 57.39202679 19.53552098 58.41121518 15.74609375 60.9375 C14.83601563 61.55109375 13.9259375 62.1646875 12.98828125 62.796875 C12.28960937 63.25578125 11.5909375 63.7146875 10.87109375 64.1875 C7.93662489 62.76958437 5.43776966 61.20417393 2.87109375 59.1875 C2.60296875 59.950625 2.33484375 60.71375 2.05859375 61.5 C0.9197487 64.07738618 0.05692704 65.45704864 -2.12890625 67.1875 C-2.78890625 67.1875 -3.44890625 67.1875 -4.12890625 67.1875 C-4.78890625 68.8375 -5.44890625 70.4875 -6.12890625 72.1875 C-7.11890625 72.1875 -8.10890625 72.1875 -9.12890625 72.1875 C-9.78890625 73.8375 -10.44890625 75.4875 -11.12890625 77.1875 C-14.04407917 76.11348892 -15.90700801 75.40939824 -18.12890625 73.1875 C-20.14967971 73.12848078 -20.14967971 73.12848078 -22.12890625 74.1875 C-23.73797733 76.56362865 -23.73797733 76.56362865 -25.12890625 79.1875 C-26.10911 80.2069119 -27.10693633 81.20996356 -28.12890625 82.1875 C-28.78890625 83.1775 -29.44890625 84.1675 -30.12890625 85.1875 C-32.69140625 85.4375 -32.69140625 85.4375 -35.12890625 85.1875 C-36.12890625 84.1875 -36.12890625 84.1875 -36.24243164 80.58569336 C-36.2422725 78.98290144 -36.23657688 77.3801044 -36.2265625 75.77734375 C-36.22514755 74.93530899 -36.2237326 74.09327423 -36.22227478 73.22572327 C-36.21665888 70.52544665 -36.20410373 67.82525172 -36.19140625 65.125 C-36.1863933 63.29882932 -36.18183004 61.47265734 -36.17773438 59.64648438 C-36.16668429 55.16012458 -36.14940904 50.67382616 -36.12890625 46.1875 C-31.75478548 46.0430026 -27.38060055 45.90068089 -23.00634766 45.76025391 C-21.52260493 45.71232898 -20.03888028 45.66384047 -18.55517578 45.61474609 C-10.41087975 45.34564933 -2.27899754 45.12319948 5.87109375 45.1875 C4.88109375 44.5275 3.89109375 43.8675 2.87109375 43.1875 C9.30609375 42.6925 9.30609375 42.6925 15.87109375 42.1875 C12.25036823 41.28231862 9.20086981 40.99385267 5.49609375 40.8125 C0.66901167 40.46538399 -3.09823589 40.0985397 -7.12890625 37.1875 C-7.45890625 36.1975 -7.78890625 35.2075 -8.12890625 34.1875 C-11.13738043 32.96229736 -11.13738043 32.96229736 -14.12890625 32.1875 C-14.12890625 31.5275 -14.12890625 30.8675 -14.12890625 30.1875 C-6.49554596 29.76688627 0.19506663 30.79038308 7.625 32.515625 C12.95149947 33.61810142 17.60069036 33.61442144 22.87109375 32.1875 C22.2678125 32.01734375 21.66453125 31.8471875 21.04296875 31.671875 C16.36046003 30.25201752 13.01798226 29.15531594 9.87109375 25.1875 C11.85109375 24.8575 13.83109375 24.5275 15.87109375 24.1875 C15.27941406 24.07792969 14.68773437 23.96835938 14.078125 23.85546875 C9.4258422 22.92197644 5.83758857 21.90738216 1.87109375 19.1875 C-0.64479518 17.69369095 -1.79023021 17.17943628 -4.75390625 17.25 C-5.53765625 17.229375 -6.32140625 17.20875 -7.12890625 17.1875 C-7.78890625 16.1975 -8.44890625 15.2075 -9.12890625 14.1875 C-12.12890625 13.77083333 -12.12890625 13.77083333 -15.12890625 14.1875 C-15.78890625 14.8475 -16.44890625 15.5075 -17.12890625 16.1875 C-20.61131184 17.9287028 -22.42884969 18.37680389 -26.12890625 17.1875 C-28.09713511 19.15572886 -27.79139006 22.53558709 -28.12890625 25.1875 C-30.10890625 25.8475 -32.08890625 26.5075 -34.12890625 27.1875 C-31.89513273 18.25240591 -25.43041741 11.48948072 -18.12890625 6.1875 C-12.13083453 2.59422793 -6.95570031 0.61261214 0 0 Z " fill="#F3A308" transform="translate(83.12890625,54.8125)"/>
<path d="M0 0 C0.12775803 7.45220435 0.21475003 14.90412183 0.2746582 22.35717773 C0.29965718 24.88755853 0.3336678 27.41786819 0.37719727 29.94799805 C0.90109149 61.20291098 0.90109149 61.20291098 -10.83203125 74.78515625 C-14.27752024 78.3051423 -17.91947054 81.24916031 -22 84 C-22.68578125 84.47308594 -23.3715625 84.94617188 -24.078125 85.43359375 C-33.86664816 91.54235728 -46.89390933 93.7779158 -58.15234375 91.30859375 C-69.09556651 88.25674983 -80.51970617 82.72044075 -87 73 C-90.90789745 73.63583706 -94.1964207 74.84035881 -97.8125 76.4375 C-107.05905965 80.34386097 -115.92074608 82.89353811 -125.8125 79.8125 C-130.22391276 77.30404961 -133.36969056 74.89092832 -135 70 C-136.83242805 54.97408998 -128.54701805 41.70695853 -120 30 C-115.90156765 24.79656948 -111.56818666 19.79556247 -107 15 C-106.67 15 -106.34 15 -106 15 C-105.1523049 21.90266007 -105.1523049 21.90266007 -107.20703125 24.5625 C-108.40141212 25.63660364 -109.59831925 26.70790072 -110.796875 27.77734375 C-119.65133257 36.71029829 -127.87139875 50.30886791 -128.5625 63 C-128.31199493 67.00808109 -127.00251702 69.25484158 -124 72 C-112.56277199 75.81240934 -102.24564557 71.9233803 -92 67 C-91.07832031 66.566875 -90.15664062 66.13375 -89.20703125 65.6875 C-74.75970655 58.34362542 -62.01040179 47.75731011 -50 37 C-49.11957031 36.21882813 -48.23914063 35.43765625 -47.33203125 34.6328125 C-40.82826889 28.82181974 -34.42085293 22.90233044 -28 17 C-25.12878998 19.69427271 -23.6117451 22.39276097 -22 26 C-22 26.66 -22 27.32 -22 28 C-21.01 27.505 -21.01 27.505 -20 27 C-20.15662109 25.60587891 -20.15662109 25.60587891 -20.31640625 24.18359375 C-20.9705139 14.22662174 -20.9705139 14.22662174 -18.03125 10.51171875 C-12.12771739 6 -12.12771739 6 -10 6 C-9.95054429 11.76577504 -9.9142539 17.53142646 -9.89013672 23.29736328 C-9.88008217 25.25864818 -9.86643667 27.21991811 -9.84912109 29.18115234 C-9.82484887 32.00101418 -9.81351141 34.82067772 -9.8046875 37.640625 C-9.79436493 38.51680481 -9.78404236 39.39298462 -9.77340698 40.29571533 C-9.77325592 41.11626404 -9.77310486 41.93681274 -9.77294922 42.78222656 C-9.768508 43.50170471 -9.76406677 44.22118286 -9.75949097 44.96246338 C-10.03800177 47.32194212 -10.83410654 48.94641346 -12 51 C-12.78503906 49.97777344 -13.57007812 48.95554688 -14.37890625 47.90234375 C-15.43886755 46.57973717 -16.50013442 45.25817616 -17.5625 43.9375 C-18.07619141 43.26138672 -18.58988281 42.58527344 -19.11914062 41.88867188 C-20.65836035 40.00527879 -22.02705845 38.42645269 -24 37 C-27.68249936 37.05601107 -27.68249936 37.05601107 -31 38 C-33.80189446 36.23358828 -35.51524911 34.96950178 -37 32 C-40.98666093 32.53927212 -42.70523996 34.40515243 -45.421875 37.26953125 C-46.27547607 38.15358643 -47.12907715 39.0376416 -48.00854492 39.94848633 C-48.9132251 40.89361084 -49.81790527 41.83873535 -50.75 42.8125 C-57.20525918 49.45317994 -63.71584731 55.79758432 -71.1875 61.3125 C-71.85168945 61.80274658 -72.51587891 62.29299316 -73.20019531 62.7980957 C-77.68654646 66 -77.68654646 66 -80 66 C-74.7305349 73.12089879 -67.80778288 78.14416582 -59 80 C-45.63939604 81.16858944 -33.52293292 80.39677962 -22.77734375 71.62890625 C-15.22756571 64.70965913 -9.72900857 56.04432923 -8.7857666 45.63601685 C-8.67460098 42.91404802 -8.61912268 40.19669123 -8.5859375 37.47265625 C-8.56657135 36.48373886 -8.5472052 35.49482147 -8.5272522 34.47593689 C-8.46779378 31.33821049 -8.42120644 28.20044672 -8.375 25.0625 C-8.33678916 22.92641689 -8.29773564 20.79034867 -8.2578125 18.65429688 C-8.16212028 13.43633081 -8.07697545 8.21827395 -8 3 C-2.25 0 -2.25 0 0 0 Z " fill="#F0A413" transform="translate(135,93)"/>
<path d="M0 0 C5.94407866 4.24733429 12.0302946 9.47843852 15.1875 16.1875 C15.1875 16.8475 15.1875 17.5075 15.1875 18.1875 C14.1975 18.1875 13.2075 18.1875 12.1875 18.1875 C12.1875 17.5275 12.1875 16.8675 12.1875 16.1875 C8.2275 16.6825 8.2275 16.6825 4.1875 17.1875 C4.1875 16.1975 4.1875 15.2075 4.1875 14.1875 C3.30384766 14.02507812 3.30384766 14.02507812 2.40234375 13.859375 C-0.08205908 13.10572899 -1.29656847 12.12554328 -3.25 10.4375 C-13.02146232 3.00112978 -23.8132135 0.79319878 -35.82470703 1.90087891 C-45.40004266 3.28155245 -54.54852095 8.91363118 -60.59375 16.390625 C-65.9939055 24.17320205 -68.95867151 31.58800987 -68.91015625 41.1394043 C-68.90520142 42.90099129 -68.90520142 42.90099129 -68.90014648 44.69816589 C-68.89184814 45.95663834 -68.8835498 47.21511078 -68.875 48.51171875 C-68.86921571 50.49410628 -68.86343685 52.47649385 -68.85798645 54.45888233 C-68.84706939 57.9309412 -68.82956899 61.40296683 -68.8125 64.875 C-68.79213355 69.02927649 -68.77291494 73.18353296 -68.76147461 77.33784485 C-68.75391442 79.9231389 -68.74181873 82.50842427 -68.72485352 85.09367371 C-68.71989868 86.84107597 -68.71989868 86.84107597 -68.71484375 88.6237793 C-68.70960693 89.65238571 -68.70437012 90.68099213 -68.69897461 91.74076843 C-68.8125 94.1875 -68.8125 94.1875 -69.8125 96.1875 C-72.875 96.8125 -72.875 96.8125 -75.8125 97.1875 C-77.56052524 93.39607374 -78.07603489 90.38930998 -78.11889648 86.2265625 C-78.13488388 85.04763428 -78.15087128 83.86870605 -78.16734314 82.65405273 C-78.17270584 81.38634033 -78.17806854 80.11862793 -78.18359375 78.8125 C-78.19262222 77.49644775 -78.2016507 76.18039551 -78.21095276 74.82446289 C-78.22741982 72.03708453 -78.2351374 69.24982584 -78.23803711 66.46240234 C-78.24338755 62.92656763 -78.28093526 59.39189365 -78.32678127 55.85638428 C-78.35685329 53.10732157 -78.36376725 50.35852666 -78.36476326 47.60931396 C-78.37090679 45.68360177 -78.40023171 43.75800704 -78.43028259 41.83251953 C-78.36842438 29.57690674 -74.79107845 19.49244059 -66.8125 10.1875 C-66.21695313 9.38441406 -65.62140625 8.58132812 -65.0078125 7.75390625 C-48.40531889 -11.6550587 -20.71430751 -12.79310024 0 0 Z " fill="#AABFD8" transform="translate(114.8125,51.8125)"/>
<path d="M0 0 C0.12775803 7.45220435 0.21475003 14.90412183 0.2746582 22.35717773 C0.29965718 24.88755853 0.3336678 27.41786819 0.37719727 29.94799805 C0.90109149 61.20291098 0.90109149 61.20291098 -10.83203125 74.78515625 C-14.27752024 78.3051423 -17.91947054 81.24916031 -22 84 C-22.68578125 84.47308594 -23.3715625 84.94617188 -24.078125 85.43359375 C-33.86664816 91.54235728 -46.89390933 93.7779158 -58.15234375 91.30859375 C-68.16581137 88.51603977 -77.86092935 83.76347916 -85 76 C-86.4375 73.125 -86.4375 73.125 -87 71 C-85.35 69.68 -83.7 68.36 -82 67 C-79.14239092 68.30456066 -77.03676049 69.73254963 -74.75 71.875 C-65.04283336 80.41313152 -54.64981668 80.66400227 -42.28613281 80.17919922 C-32.32648256 79.39850899 -24.32001945 73.81761481 -17.75 66.625 C-10.63443972 57.84656423 -8.72042601 48.51226327 -8.5859375 37.47265625 C-8.56657135 36.48373886 -8.5472052 35.49482147 -8.5272522 34.47593689 C-8.46779378 31.33821049 -8.42120644 28.20044672 -8.375 25.0625 C-8.33678916 22.92641689 -8.29773564 20.79034867 -8.2578125 18.65429688 C-8.16212028 13.43633081 -8.07697545 8.21827395 -8 3 C-2.25 0 -2.25 0 0 0 Z " fill="#A9BED7" transform="translate(135,93)"/>
<path d="M0 0 C1.02104551 0.97850195 2.0206121 1.97980427 3 3 C4.99628664 3.3548954 6.99690671 3.68578929 9 4 C12.23060941 5.4569415 15.05065605 7.0337707 18 9 C20.21584546 9.44703234 22.44841961 9.81463242 24.6875 10.125 C26.45673828 10.37636719 26.45673828 10.37636719 28.26171875 10.6328125 C29.61716797 10.81457031 29.61716797 10.81457031 31 11 C31 11.33 31 11.66 31 12 C27.37 12.33 23.74 12.66 20 13 C21.98 13.33 23.96 13.66 26 14 C25.34 14.66 24.68 15.32 24 16 C26.97 16.99 29.94 17.98 33 19 C33 19.33 33 19.66 33 20 C24.7002108 22.0749473 17.74717007 20.60527244 9.56640625 18.734375 C4.73172754 17.73884422 -0.07841768 17.29127732 -5 17 C-5 17.66 -5 18.32 -5 19 C-3.02 19.33 -1.04 19.66 1 20 C1.04125 20.61875 1.0825 21.2375 1.125 21.875 C1.8154837 24.24456542 1.8154837 24.24456542 4.375 25.0625 C9.18296795 26.30593999 13.93514398 26.71669212 18.875 27.125 C19.84953125 27.21136719 20.8240625 27.29773438 21.828125 27.38671875 C24.21826446 27.59761341 26.60877625 27.80184637 29 28 C25.80830207 29.69076935 23.36696975 30.33944976 19.75 30.625 C18.85796875 30.69976562 17.9659375 30.77453125 17.046875 30.8515625 C16.37140625 30.90054688 15.6959375 30.94953125 15 31 C15.99 31.66 16.98 32.32 18 33 C3.15 33 -11.7 33 -27 33 C-26.67 45.54 -26.34 58.08 -26 71 C-24.35 71 -22.7 71 -21 71 C-19.30027975 68.69519712 -19.30027975 68.69519712 -18 66 C-17.0206121 64.97980427 -16.02104551 63.97850195 -15 63 C-13.98199424 61.68036291 -12.97751635 60.34990354 -12 59 C-10.515 59.495 -10.515 59.495 -9 60 C-9.66 60 -10.32 60 -11 60 C-10.979375 61.093125 -10.95875 62.18625 -10.9375 63.3125 C-11 67 -11 67 -12 70 C-13.92578125 71.02734375 -13.92578125 71.02734375 -16.3125 71.9375 C-20.01089266 73.45795032 -22.30795735 74.98491224 -25 78 C-25.66 78 -26.32 78 -27 78 C-29.58444631 72.09324411 -29.28856421 66.28319948 -29.265625 59.9609375 C-29.26753845 58.8025235 -29.2694519 57.6441095 -29.27142334 56.45059204 C-29.27278143 54.00807477 -29.26911133 51.56555019 -29.26074219 49.12304688 C-29.25001819 45.38134618 -29.26066053 41.6401235 -29.2734375 37.8984375 C-29.27211622 35.52343644 -29.26955448 33.14843568 -29.265625 30.7734375 C-29.26967346 29.65359467 -29.27372192 28.53375183 -29.27789307 27.37997437 C-29.27158875 26.33854279 -29.26528442 25.29711121 -29.25878906 24.22412109 C-29.25719788 23.30956146 -29.25560669 22.39500183 -29.25396729 21.45272827 C-28.98623615 18.86707347 -28.30839999 17.22559496 -27 15 C-26.67 15 -26.34 15 -26 15 C-25.85714286 22.42857143 -25.85714286 22.42857143 -27 26 C-26.05125 25.505 -25.1025 25.01 -24.125 24.5 C-21 23 -21 23 -19 23 C-18.67 22.01 -18.34 21.02 -18 20 C-16.02 19.67 -14.04 19.34 -12 19 C-12 18.34 -12 17.68 -12 17 C-13.32 16.67 -14.64 16.34 -16 16 C-15.34 15.67 -14.68 15.34 -14 15 C-17.63 15 -21.26 15 -25 15 C-24.01 14.01 -23.02 13.02 -22 12 C-21.01 12 -20.02 12 -19 12 C-19.04125 10.88625 -19.0825 9.7725 -19.125 8.625 C-19 5 -19 5 -17 3 C-16.2575 3.20625 -15.515 3.4125 -14.75 3.625 C-9.1243503 4.39213405 -6.34052317 -0.9863036 0 0 Z " fill="#090600" transform="translate(74,68)"/>
<path d="M0 0 C3.82017001 1.50078107 5.75370799 3.59183281 8 7 C9.17149719 12.00911189 9.12551674 16.9175513 9.0546875 22.02734375 C9.04293488 22.8933168 9.03118225 23.75928986 9.01907349 24.65150452 C8.99042443 26.48297711 8.95827739 28.31439791 8.92285156 30.14575195 C8.89122927 31.99065437 8.86988396 33.83576473 8.859375 35.6809082 C8.75269107 54.24891369 5.41743852 71.26484379 -7.8125 85.375 C-12.09541195 89.36796626 -16.86185597 92.23773377 -22 95 C-22.69222656 95.391875 -23.38445312 95.78375 -24.09765625 96.1875 C-35.89616054 102.5676057 -50.29054851 102.77944499 -63.03125 99.09765625 C-74.2728567 94.94122009 -85.26841975 88.18312299 -92 78 C-92 77.34 -92 76.68 -92 76 C-89.8865327 74.71682342 -88.49911402 73.98440269 -86 74.0625 C-84 75 -84 75 -82.375 77.125 C-75.33658275 85.64518931 -63.84326503 91.28606456 -53 93 C-37.69383813 94.42382901 -24.50381259 89.18490602 -12.6875 79.75 C-4.26722417 71.92616037 0.94472843 61.48646543 1.43237305 50.02124023 C1.47336193 47.78391053 1.49911795 45.54626341 1.51171875 43.30859375 C1.53864555 41.5298159 1.53864555 41.5298159 1.56611633 39.71510315 C1.61996769 35.95593744 1.65403499 32.19689689 1.6875 28.4375 C1.7206952 25.87693581 1.75518687 23.31638807 1.79101562 20.75585938 C1.87567976 14.50401854 1.9441356 8.25216099 2 2 C0.68 2.33 -0.64 2.66 -2 3 C-1.34 2.01 -0.68 1.02 0 0 Z " fill="#1E385C" transform="translate(133,91)"/>
<path d="M0 0 C0.99 0.99 1.98 1.98 3 3 C2 6 2 6 -0.9375 7.8125 C-4.45680164 10.32628688 -5.06075727 11.86733198 -6 16 C-4.68 16.66 -3.36 17.32 -2 18 C-2.99 18.33 -3.98 18.66 -5 19 C-4.34 20.32 -3.68 21.64 -3 23 C-2.01 23 -1.02 23 0 23 C6.78723404 25.57446809 6.78723404 25.57446809 8 28 C8.66 25.69 9.32 23.38 10 21 C10.66 21 11.32 21 12 21 C11.505 19.02 11.505 19.02 11 17 C11.66 17 12.32 17 13 17 C13 16.34 13 15.68 13 15 C12.01 14.67 11.02 14.34 10 14 C10.474375 13.21625 10.94875 12.4325 11.4375 11.625 C12.33898023 10.11051322 13.21179485 8.5764103 14 7 C17.45176554 8.40273876 18.81058146 9.83751737 20.625 13.0625 C22.2426718 16.1157672 22.2426718 16.1157672 25 18 C25 18.66 25 19.32 25 20 C25.99 20.33 26.98 20.66 28 21 C26.99806563 24.79303725 26.18975773 27.71536341 24 31 C23.34 31 22.68 31 22 31 C21.9175 31.5775 21.835 32.155 21.75 32.75 C20.01427861 37.95716418 14.26875515 41.636416 9.71875 44.37109375 C4.52172821 46.86895809 -0.26774798 47.63604749 -6 48 C-6.66 46.68 -7.32 45.36 -8 44 C-6.02 43.505 -6.02 43.505 -4 43 C-5.32 42.34 -6.64 41.68 -8 41 C-7.34 40.34 -6.68 39.68 -6 39 C-7.32 38.01 -8.64 37.02 -10 36 C-7.36 36 -4.72 36 -2 36 C-2.33 35.34 -2.66 34.68 -3 34 C-2.34 33.67 -1.68 33.34 -1 33 C-2.65 32.01 -4.3 31.02 -6 30 C-5.34 29.67 -4.68 29.34 -4 29 C-4 28.34 -4 27.68 -4 27 C-4.639375 26.731875 -5.27875 26.46375 -5.9375 26.1875 C-8 25 -8 25 -9 22 C-8.34 22 -7.68 22 -7 22 C-7.66 20.35 -8.32 18.7 -9 17 C-12.65316671 18.24976756 -13.78065836 18.67098753 -16 22 C-16.7528125 22.44085938 -17.505625 22.88171875 -18.28125 23.3359375 C-22.09939204 25.67290375 -24.8971675 28.87400651 -27.89453125 32.1484375 C-30.78778598 35.18024246 -32.77179099 36.67828845 -37 37 C-37 35.68 -37 34.36 -37 33 C-34.7265625 30.95703125 -34.7265625 30.95703125 -31.625 28.8125 C-30.50650396 28.01275316 -29.39065301 27.20929534 -28.27734375 26.40234375 C-27.71901855 25.99870605 -27.16069336 25.59506836 -26.58544922 25.17919922 C-16.83988354 17.93080343 -8.51125214 8.62212016 0 0 Z " fill="#407AAC" transform="translate(95,124)"/>
<path d="M0 0 C0.99 0.495 0.99 0.495 2 1 C-2.64877992 5.37604448 -7.30517693 9.74382798 -11.97021484 14.10253906 C-13.18539791 15.23850284 -14.39960458 16.37551452 -15.61181641 17.51464844 C-33.21378256 34.03595278 -59.59272925 58.22935603 -85.0625 58.3125 C-86.84333984 58.33763672 -86.84333984 58.33763672 -88.66015625 58.36328125 C-93.05246539 57.88552131 -95.57433499 56.27818242 -98.8125 53.375 C-101.23451281 48.53097438 -100.5456289 43.97537872 -99.15625 38.9453125 C-94.7634618 26.56833495 -87.30399554 16.20220128 -78 7 C-77.67 7 -77.34 7 -77 7 C-76.07610795 15.50322866 -76.07610795 15.50322866 -78.08984375 18.765625 C-79.11587061 19.84336144 -80.1532786 20.91032846 -81.19921875 21.96875 C-86.99375909 28.50489095 -90.85540645 36.28848462 -90.5390625 45.07421875 C-90.11533924 47.39379947 -90.11533924 47.39379947 -87 49 C-79.54043351 50.1771059 -73.64042281 48.18885243 -67 45 C-65.83855469 44.46375 -64.67710938 43.9275 -63.48046875 43.375 C-44.09353332 34.2117016 -25.63088738 21.96265884 -9.75 7.53515625 C-6.65667079 4.82158844 -3.32772364 2.41613977 0 0 Z " fill="#132C4D" transform="translate(106,109)"/>
<path d="M0 0 C3.38005327 1.44859426 5.4587228 3.37330171 8 6 C-1.94575115 13.94254332 -12.32030534 21.08232988 -23 28 C-23.60376465 28.39493652 -24.2075293 28.78987305 -24.82958984 29.19677734 C-49.46818048 45.25298517 -49.46818048 45.25298517 -62.125 45.3125 C-62.95257813 45.32925781 -63.78015625 45.34601563 -64.6328125 45.36328125 C-67.57681459 44.91147895 -68.90855744 44.11024204 -71 42 C-72.89191867 35.98764497 -70.65290529 30.65273034 -67.875 25.3125 C-65.00392474 20.37565108 -61.98835512 16.08331596 -58 12 C-57.67 12 -57.34 12 -57 12 C-56.51144548 19.50474031 -56.98965969 23.68067588 -61 30 C-61.58338507 32.36620985 -61.80083208 34.56019296 -62 37 C-57.82698385 37.08182385 -54.06842202 36.92992503 -50 36 C-49.34 36 -48.68 36 -48 36 C-47.67 35.34 -47.34 34.68 -47 34 C-45.02 34 -43.04 34 -41 34 C-40.34 32.68 -39.68 31.36 -39 30 C-39 30.66 -39 31.32 -39 32 C-36.51525497 30.93510927 -35.02208443 30.02436903 -33.1875 28 C-30.35986873 25.41473712 -27.68716566 24.85088438 -24 24 C-24.020625 22.72125 -24.04125 21.4425 -24.0625 20.125 C-24.125 16.25 -24.125 16.25 -23 14 C-19.85262818 14.69941596 -16.97411124 15.76078698 -14 17 C-13.34 15.68 -12.68 14.36 -12 13 C-11.01 13 -10.02 13 -9 13 C-8.773125 12.278125 -8.54625 11.55625 -8.3125 10.8125 C-6.74537323 7.45437121 -4.671784 5.5381948 -2 3 C-1.34 2.01 -0.68 1.02 0 0 Z " fill="#3195D5" transform="translate(86,114)"/>
<path d="M0 0 C1.5 1.3125 1.5 1.3125 3 3 C3 3.99 3 4.98 3 6 C2.34 6 1.68 6 1 6 C3.475 8.475 3.475 8.475 6 11 C5.67 11.99 5.34 12.98 5 14 C7.475 15.485 7.475 15.485 10 17 C9.34 17.66 8.68 18.32 8 19 C8.495 19.99 8.495 19.99 9 21 C6.69 21 4.38 21 2 21 C3.32 21.99 4.64 22.98 6 24 C5.01 24.33 4.02 24.66 3 25 C3.99 25.66 4.98 26.32 6 27 C5.67 27.66 5.34 28.32 5 29 C4.01 28.67 3.02 28.34 2 28 C1.87625 28.639375 1.7525 29.27875 1.625 29.9375 C1.315625 30.9584375 1.315625 30.9584375 1 32 C-3.27101211 34.13550605 -8.37548078 33.57328751 -13 33 C-19.81335119 30.45927936 -25.33647709 26.54581102 -30 21 C-30 20.34 -30 19.68 -30 19 C-29.175 19.309375 -28.35 19.61875 -27.5 19.9375 C-22.76509646 20.02205185 -21.34393979 18.22252302 -18.0234375 15.0546875 C-14.2560191 11.24501574 -14.2560191 11.24501574 -10.54296875 7.3828125 C-9 6 -9 6 -6 5 C-5.34 4.01 -4.68 3.02 -4 2 C-1.875 0.8125 -1.875 0.8125 0 0 Z " fill="#0E2A51" transform="translate(85,140)"/>
<path d="M0 0 C1.98 0 3.96 0 6 0 C6.50734284 2.3736397 7.00602386 4.74857425 7.5 7.125 C7.64308594 7.79015625 7.78617187 8.4553125 7.93359375 9.140625 C8.7612283 13.16056422 9.15330658 16.89904899 9 21 C9.66 21 10.32 21 11 21 C11.103125 19.7625 11.20625 18.525 11.3125 17.25 C11.95168106 11.35637468 13.46277997 5.71381786 15 0 C16.98 0 18.96 0 21 0 C22.90283903 5.36600607 24.4643452 10.66195471 25.5703125 16.25 C25.84383855 18.01653784 25.84383855 18.01653784 27 19 C28.32 12.73 29.64 6.46 31 0 C32.98 0 34.96 0 37 0 C36.31261551 6.63681576 34.95828166 13.00792369 33.4375 19.5 C33.08655273 21.01980469 33.08655273 21.01980469 32.72851562 22.5703125 C32.15590618 25.04772479 31.57965985 27.52422965 31 30 C28.36 30 25.72 30 23 30 C22.32900016 27.39688008 21.66304662 24.79264602 21 22.1875 C20.80921875 21.44951172 20.6184375 20.71152344 20.421875 19.95117188 C19.64737086 16.89464659 19 14.16626522 19 11 C18.34 11 17.68 11 17 11 C16.96261719 11.61746094 16.92523438 12.23492187 16.88671875 12.87109375 C16.41276584 18.9767224 15.19399627 24.28733047 13 30 C10.69 30 8.38 30 6 30 C4.99282887 25.75166645 3.99550625 21.50108076 3 17.25 C2.71382813 16.0434375 2.42765625 14.836875 2.1328125 13.59375 C1.86210937 12.43359375 1.59140625 11.2734375 1.3125 10.078125 C1.06113281 9.00981445 0.80976563 7.94150391 0.55078125 6.84082031 C0 4 0 4 0 0 Z " fill="#183257" transform="translate(377,100)"/>
<path d="M0 0 C0.04945571 5.76577504 0.0857461 11.53142646 0.10986328 17.29736328 C0.11991783 19.25864818 0.13356333 21.21991811 0.15087891 23.18115234 C0.17515113 26.00101418 0.18648859 28.82067772 0.1953125 31.640625 C0.20563507 32.51680481 0.21595764 33.39298462 0.22659302 34.29571533 C0.22674408 35.11626404 0.22689514 35.93681274 0.22705078 36.78222656 C0.231492 37.50170471 0.23593323 38.22118286 0.24050903 38.96246338 C-0.03800177 41.32194212 -0.83410654 42.94641346 -2 45 C-3.17755859 43.46666016 -3.17755859 43.46666016 -4.37890625 41.90234375 C-5.43886755 40.57973717 -6.50013442 39.25817616 -7.5625 37.9375 C-8.07619141 37.26138672 -8.58988281 36.58527344 -9.11914062 35.88867188 C-10.65832081 34.00532717 -12.02743594 32.42682798 -14 31 C-17.68634784 31.04015797 -17.68634784 31.04015797 -21 32 C-25.00799181 29.6842714 -26.65713078 27.39484471 -28 23 C-27.236875 22.278125 -26.47375 21.55625 -25.6875 20.8125 C-23.2756884 18.28851112 -21.76588391 15.96989567 -20 13 C-19.01 12.34 -18.02 11.68 -17 11 C-16.16151196 12.45537568 -15.32936066 13.91440373 -14.5 15.375 C-14.0359375 16.18710938 -13.571875 16.99921875 -13.09375 17.8359375 C-12 20 -12 20 -12 22 C-11.34 21.67 -10.68 21.34 -10 21 C-10.10441406 20.07058594 -10.20882812 19.14117187 -10.31640625 18.18359375 C-10.9705139 8.22662174 -10.9705139 8.22662174 -8.03125 4.51171875 C-2.12771739 0 -2.12771739 0 0 0 Z " fill="#F6A409" transform="translate(125,99)"/>
<path d="M0 0 C1.98 0 3.96 0 6 0 C6 10.56 6 21.12 6 32 C4.02 32 2.04 32 0 32 C-0.33 31.34 -0.66 30.68 -1 30 C-1.66 30.66 -2.32 31.32 -3 32 C-9.95791583 32.56112224 -9.95791583 32.56112224 -13.4375 30.6875 C-16.95361644 26.89009425 -16.39503819 21.78015487 -16.3359375 16.8984375 C-16 14 -16 14 -14 10.75 C-9.90975338 8.3640228 -7.68616818 8.462243 -3 9 C-2.34 9.66 -1.68 10.32 -1 11 C-0.67 7.37 -0.34 3.74 0 0 Z " fill="#1B3559" transform="translate(290,98)"/>
<path d="M0 0 C1.98 0 3.96 0 6 0 C6 10.56 6 21.12 6 32 C4.02 32 2.04 32 0 32 C-0.33 31.34 -0.66 30.68 -1 30 C-1.66 30.66 -2.32 31.32 -3 32 C-10.07874016 32.68503937 -10.07874016 32.68503937 -13.4375 30.1875 C-16.71975972 25.59233639 -16.72544504 20.44083781 -16 15 C-14.71716181 11.94876337 -13.72997903 11.1612334 -11 9 C-8.0385906 8.36623534 -6.09513519 8.60062772 -3 9 C-2.01 9.66 -1.02 10.32 0 11 C0 7.37 0 3.74 0 0 Z " fill="#173156" transform="translate(491,98)"/>
<path d="M0 0 C2.701875 -0.0825 5.40375 -0.165 8.1875 -0.25 C9.02949951 -0.28641602 9.87149902 -0.32283203 10.73901367 -0.36035156 C14.6232214 -0.41760127 16.59717422 -0.24054752 20.015625 1.80078125 C22 4 22 4 22.5625 7.4375 C21.92913107 11.44883655 20.79224926 13.12049295 18 16 C18.45375 16.639375 18.9075 17.27875 19.375 17.9375 C21.44541527 21.83943648 22.20081414 25.68439633 23 30 C21.02 30 19.04 30 17 30 C16.79246094 29.22914063 16.58492187 28.45828125 16.37109375 27.6640625 C14.90890206 21.98325413 14.90890206 21.98325413 11.17578125 17.82421875 C9.0546619 17.20454008 9.0546619 17.20454008 6 17 C6 21.29 6 25.58 6 30 C4.02 30 2.04 30 0 30 C0 20.1 0 10.2 0 0 Z " fill="#183156" transform="translate(167,100)"/>
<path d="M0 0 C0.99 0.33 1.98 0.66 3 1 C3 1.66 3 2.32 3 3 C7.48560744 5.53832211 7.48560744 5.53832211 12.3984375 5.26953125 C13.68621094 5.13611328 13.68621094 5.13611328 15 5 C17.3515625 6.94921875 17.3515625 6.94921875 19.625 9.6875 C20.38039062 10.57824219 21.13578125 11.46898437 21.9140625 12.38671875 C23.65170739 14.56365588 25.35001947 16.75623666 27 19 C27.66 17.35 28.32 15.7 29 14 C29.66 14 30.32 14 31 14 C29.02286475 26.69528949 24.00270823 36.07116433 13.4375 43.8984375 C5.44475654 48.89390216 -1.63132164 50.30900048 -10.9375 50.125 C-11.81212891 50.11597656 -12.68675781 50.10695312 -13.58789062 50.09765625 C-15.72538064 50.0742957 -17.86272786 50.03843247 -20 50 C-20 49.67 -20 49.34 -20 49 C-18.39658445 48.66307215 -16.79223445 48.33058907 -15.1875 48 C-14.29417969 47.814375 -13.40085937 47.62875 -12.48046875 47.4375 C-10 47 -10 47 -7 47 C2.30451574 46.70461855 10.89423692 43.34448373 17.6875 36.8125 C20.14282565 34.1686089 20.14282565 34.1686089 21 31 C21.66 31 22.32 31 23 31 C24.12880057 27.68885166 25.21302675 24.41021743 26 21 C25.071875 20.319375 25.071875 20.319375 24.125 19.625 C20.67994479 16.99054601 19.06718132 14.41987686 17.09765625 10.65625 C15.94357293 8.68278769 15.94357293 8.68278769 13 7 C12.690625 7.969375 12.38125 8.93875 12.0625 9.9375 C11 13 11 13 10 14 C10.66 14.33 11.32 14.66 12 15 C12 15.66 12 16.32 12 17 C11.34 17 10.68 17 10 17 C10.33 18.32 10.66 19.64 11 21 C10.34 21.33 9.68 21.66 9 22 C8.59270772 24.32156597 8.25561323 26.6568787 8 29 C7.34 28.67 6.68 28.34 6 28 C6 27.34 6 26.68 6 26 C5.05125 25.87625 4.1025 25.7525 3.125 25.625 C0 25 0 25 -2 23 C-2.99 23 -3.98 23 -5 23 C-5.33 21.68 -5.66 20.36 -6 19 C-5.34 18.67 -4.68 18.34 -4 18 C-4.99 17.34 -5.98 16.68 -7 16 C-6.9375 13.3125 -6.9375 13.3125 -6 10 C-3.85695876 8.00635346 -1.51607093 6.48467893 1 5 C0.67 3.35 0.34 1.7 0 0 Z " fill="#133057" transform="translate(96,124)"/>
<path d="M0 0 C3.63467079 1.62400184 4.77408696 2.66113044 7 6 C7.68869056 11.17318721 7.84213522 15.59644131 5.125 20.125 C1.37353273 23.43511818 -1.64819791 23.39063802 -6.515625 23.35546875 C-9 23 -9 23 -12.0625 20.6875 C-15.18974315 16.34971112 -15.58180918 12.22607543 -15 7 C-11.76097261 -0.09501237 -7.17905646 -0.83272008 0 0 Z " fill="#193358" transform="translate(432,107)"/>
<path d="M0 0 C4.06219391 0.04520725 6.5258907 0.61209239 9.75 3.25 C12.58347108 7.50020662 12.27603554 11.26063257 11.75 16.25 C10.13727433 19.93623011 9.119675 21.00355 5.75 23.25 C2.35892629 23.79602034 -0.85874176 23.79627924 -4.25 23.25 C-7.07424288 21.05977082 -8.66508603 19.41982793 -10.25 16.25 C-10.66948626 12.8641466 -10.74414522 9.62931569 -10.25 6.25 C-7.8125 3.1875 -7.8125 3.1875 -5.25 1.25 C-3.68966377 -0.31033623 -2.16052864 0.04292441 0 0 Z " fill="#183156" transform="translate(204.25,106.75)"/>
<path d="M0 0 C1.98 0 3.96 0 6 0 C6.33 3.63 6.66 7.26 7 11 C7.66 10.34 8.32 9.68 9 9 C14.63994911 8.36323155 14.63994911 8.36323155 17 9 C19.46444259 11.13814009 20.82301518 12.81711932 21.31396484 16.09838867 C21.39358465 18.51563575 21.34917291 20.89611389 21.25 23.3125 C21.23195313 24.14845703 21.21390625 24.98441406 21.1953125 25.84570312 C21.14841126 27.89763228 21.07667411 29.94896756 21 32 C19.02 32 17.04 32 15 32 C14.67 26.39 14.34 20.78 14 15 C12.02 15 10.04 15 8 15 C5.94077598 17.05922402 6.58572421 21.21708124 6.4375 24.0625 C6.39431641 24.82111328 6.35113281 25.57972656 6.30664062 26.36132812 C6.20026367 28.24065438 6.09960066 30.12030244 6 32 C4.02 32 2.04 32 0 32 C0 21.44 0 10.88 0 0 Z " fill="#163055" transform="translate(327,98)"/>
<path d="M0 0 C2.87029869 1.79393668 4.49131638 2.98263276 6 6 C6 8.31 6 10.62 6 13 C1.05 13 -3.9 13 -9 13 C-8.67 14.65 -8.34 16.3 -8 18 C-6.741875 17.855625 -5.48375 17.71125 -4.1875 17.5625 C-3.12595703 17.44068359 -3.12595703 17.44068359 -2.04296875 17.31640625 C0.19396393 17.02829265 0.19396393 17.02829265 3 16 C3.66 16.33 4.32 16.66 5 17 C4.6875 18.875 4.6875 18.875 4 21 C-0.23552856 23.82368571 -4.02477314 23.66653757 -9 23 C-11.93423195 21.20353146 -13.47205355 20.0558929 -15 17 C-15.51124099 11.79539913 -15.86132441 7.43554069 -13.125 2.875 C-9.10601471 -0.67116349 -5.18640263 -0.67181381 0 0 Z " fill="#1A3458" transform="translate(368,107)"/>
<path d="M0 0 C3.38005327 1.44859426 5.4587228 3.37330171 8 6 C-1.94437503 13.94144437 -12.31364298 21.09482063 -23 28 C-23.66757324 28.4321582 -24.33514648 28.86431641 -25.02294922 29.30957031 C-35.41995135 36 -35.41995135 36 -39 36 C-39 34.68 -39 33.36 -39 32 C-38.4225 31.7525 -37.845 31.505 -37.25 31.25 C-34.89483142 30.09940528 -34.89483142 30.09940528 -33.1875 28 C-30.35986873 25.41473712 -27.68716566 24.85088438 -24 24 C-24.020625 22.72125 -24.04125 21.4425 -24.0625 20.125 C-24.125 16.25 -24.125 16.25 -23 14 C-19.85262818 14.69941596 -16.97411124 15.76078698 -14 17 C-13.34 15.68 -12.68 14.36 -12 13 C-11.01 13 -10.02 13 -9 13 C-8.773125 12.278125 -8.54625 11.55625 -8.3125 10.8125 C-6.74537323 7.45437121 -4.671784 5.5381948 -2 3 C-1.34 2.01 -0.68 1.02 0 0 Z " fill="#2B8AC9" transform="translate(86,114)"/>
<path d="M0 0 C1.98 0 3.96 0 6 0 C6.33 0.66 6.66 1.32 7 2 C7.66 1.34 8.32 0.68 9 0 C14.63994911 -0.63676845 14.63994911 -0.63676845 17 0 C19.46444259 2.13814009 20.82301518 3.81711932 21.31396484 7.09838867 C21.39358465 9.51563575 21.34917291 11.89611389 21.25 14.3125 C21.23195313 15.14845703 21.21390625 15.98441406 21.1953125 16.84570312 C21.14841126 18.89763228 21.07667411 20.94896756 21 23 C19.02 23 17.04 23 15 23 C14.67 17.39 14.34 11.78 14 6 C12.02 6 10.04 6 8 6 C5.94077598 8.05922402 6.58572421 12.21708124 6.4375 15.0625 C6.39431641 15.82111328 6.35113281 16.57972656 6.30664062 17.36132812 C6.20026367 19.24065438 6.09960066 21.12030244 6 23 C4.02 23 2.04 23 0 23 C0 15.41 0 7.82 0 0 Z " fill="#1B3459" transform="translate(248,107)"/>
<path d="M0 0 C1.59819986 1.11650689 3.1325174 2.32397855 4.64453125 3.5546875 C3.98453125 4.5446875 3.32453125 5.5346875 2.64453125 6.5546875 C2.00451172 5.97460938 2.00451172 5.97460938 1.3515625 5.3828125 C-6.39981742 -1.07400706 -15.99578439 -4.20330399 -26.09375 -3.69921875 C-36.32035416 -2.55115438 -45.41362678 1.61932233 -52.52734375 9.15234375 C-55.87966881 13.55764271 -58.13438394 18.50676747 -60.35546875 23.5546875 C-58.87046875 23.3071875 -58.87046875 23.3071875 -57.35546875 23.0546875 C-53.32813933 22.46994233 -49.42072252 22.48336726 -45.35546875 22.5546875 C-47.33546875 23.5446875 -47.33546875 23.5446875 -49.35546875 24.5546875 C-48.69546875 24.8846875 -48.03546875 25.2146875 -47.35546875 25.5546875 C-47.35546875 26.2146875 -47.35546875 26.8746875 -47.35546875 27.5546875 C-48.26296875 27.8021875 -49.17046875 28.0496875 -50.10546875 28.3046875 C-53.39883249 29.31883105 -53.39883249 29.31883105 -55.41796875 31.6171875 C-57.70374678 33.90296553 -59.19626775 34.20366517 -62.35546875 34.5546875 C-62.34386719 33.85601562 -62.33226562 33.15734375 -62.3203125 32.4375 C-62.31128906 31.52742188 -62.30226562 30.61734375 -62.29296875 29.6796875 C-62.28136719 28.77476563 -62.26976562 27.86984375 -62.2578125 26.9375 C-62.19297618 24.537829 -62.19297618 24.537829 -63.35546875 22.5546875 C-58.97346524 11.06959766 -51.97875825 2.04291838 -41.06640625 -3.63671875 C-27.52643524 -9.5067666 -12.42680071 -7.62506843 0 0 Z " fill="#2A394C" transform="translate(109.35546875,59.4453125)"/>
<path d="M0 0 C1.98 0 3.96 0 6 0 C6.33 5.61 6.66 11.22 7 17 C8.98 17 10.96 17 13 17 C14.52106634 13.95786733 14.37429338 10.71952428 14.5625 7.375 C14.60568359 6.66859375 14.64886719 5.9621875 14.69335938 5.234375 C14.79944751 3.48981463 14.90022889 1.74493303 15 0 C16.65 0 18.3 0 20 0 C20 7.59 20 15.18 20 23 C18.35 23 16.7 23 15 23 C14.67 22.34 14.34 21.68 14 21 C13.34 21.66 12.68 22.32 12 23 C9.94140625 23.37109375 9.94140625 23.37109375 7.5625 23.4375 C6.78003906 23.47746094 5.99757812 23.51742187 5.19140625 23.55859375 C3 23 3 23 1.2265625 21.0546875 C-0.45962812 16.85532106 -0.32526551 13.16311285 -0.1875 8.6875 C-0.17396484 7.85154297 -0.16042969 7.01558594 -0.14648438 6.15429688 C-0.11131217 4.10258502 -0.05751048 2.05120725 0 0 Z " fill="#163055" transform="translate(221,107)"/>
<path d="M0 0 C7.92 0 15.84 0 24 0 C24 1.65 24 3.3 24 5 C21.03 5 18.06 5 15 5 C15 13.25 15 21.5 15 30 C13.02 30 11.04 30 9 30 C9 21.75 9 13.5 9 5 C6.03 5 3.06 5 0 5 C0 3.35 0 1.7 0 0 Z " fill="#1A3358" transform="translate(299,100)"/>
<path d="M0 0 C0.99 0.99 1.98 1.98 3 3 C2 6 2 6 -0.9375 7.8125 C-4.45680164 10.32628688 -5.06075727 11.86733198 -6 16 C-4.68 16.66 -3.36 17.32 -2 18 C-3.98 18.99 -3.98 18.99 -6 20 C-7.32 19.01 -8.64 18.02 -10 17 C-13.16115776 18.36983503 -13.9927092 18.9890638 -16 22 C-16.7528125 22.44085938 -17.505625 22.88171875 -18.28125 23.3359375 C-22.09939204 25.67290375 -24.8971675 28.87400651 -27.89453125 32.1484375 C-30.78778598 35.18024246 -32.77179099 36.67828845 -37 37 C-37 35.68 -37 34.36 -37 33 C-34.7265625 30.95703125 -34.7265625 30.95703125 -31.625 28.8125 C-30.50650396 28.01275316 -29.39065301 27.20929534 -28.27734375 26.40234375 C-27.71901855 25.99870605 -27.16069336 25.59506836 -26.58544922 25.17919922 C-16.83988354 17.93080343 -8.51125214 8.62212016 0 0 Z " fill="#4778A1" transform="translate(95,124)"/>
<path d="M0 0 C0.33 0 0.66 0 1 0 C1 18.48 1 36.96 1 56 C2.65 56 4.3 56 6 56 C7.69972025 53.69519712 7.69972025 53.69519712 9 51 C9.9793879 49.97980427 10.97895449 48.97850195 12 48 C13.01800576 46.68036291 14.02248365 45.34990354 15 44 C16.485 44.495 16.485 44.495 18 45 C17.34 45 16.68 45 16 45 C16.020625 46.093125 16.04125 47.18625 16.0625 48.3125 C16 52 16 52 15 55 C13.07421875 56.02734375 13.07421875 56.02734375 10.6875 56.9375 C6.98910734 58.45795032 4.69204265 59.98491224 2 63 C1.34 63 0.68 63 0 63 C-2.58444631 57.09324411 -2.28856421 51.28319948 -2.265625 44.9609375 C-2.26753845 43.8025235 -2.2694519 42.6441095 -2.27142334 41.45059204 C-2.27278143 39.00807477 -2.26911133 36.56555019 -2.26074219 34.12304688 C-2.25001819 30.38134618 -2.26066053 26.6401235 -2.2734375 22.8984375 C-2.27211622 20.52343644 -2.26955448 18.14843568 -2.265625 15.7734375 C-2.26967346 14.65359467 -2.27372192 13.53375183 -2.27789307 12.37997437 C-2.27158875 11.33854279 -2.26528442 10.29711121 -2.25878906 9.22412109 C-2.25719788 8.30956146 -2.25560669 7.39500183 -2.25396729 6.45272827 C-1.98623615 3.86707347 -1.30839999 2.22559496 0 0 Z " fill="#152E50" transform="translate(47,83)"/>
<path d="M0 0 C4.08332902 1.55466197 6.08208993 4.25087844 8.75 7.625 C9.54921875 8.62789062 10.3484375 9.63078125 11.171875 10.6640625 C11.77515625 11.43492187 12.3784375 12.20578125 13 13 C13.66 11.35 14.32 9.7 15 8 C15.66 8 16.32 8 17 8 C15.02286475 20.69528949 10.00270823 30.07116433 -0.5625 37.8984375 C-8.55524346 42.89390216 -15.63132164 44.30900048 -24.9375 44.125 C-25.81212891 44.11597656 -26.68675781 44.10695312 -27.58789062 44.09765625 C-29.72538064 44.0742957 -31.86272786 44.03843247 -34 44 C-34 43.67 -34 43.34 -34 43 C-32.39658445 42.66307215 -30.79223445 42.33058907 -29.1875 42 C-28.29417969 41.814375 -27.40085937 41.62875 -26.48046875 41.4375 C-24 41 -24 41 -21 41 C-11.69548426 40.70461855 -3.10576308 37.34448373 3.6875 30.8125 C6.14282565 28.1686089 6.14282565 28.1686089 7 25 C7.66 25 8.32 25 9 25 C10.12880057 21.68885166 11.21302675 18.41021743 12 15 C11.071875 14.319375 11.071875 14.319375 10.125 13.625 C6.77264119 11.0614315 5.03915657 8.44191207 3 4.75390625 C2.07190454 3.12611381 1.03938879 1.55908318 0 0 Z " fill="#183357" transform="translate(110,130)"/>
<path d="M0 0 C1.65 0 3.3 0 5 0 C5 8.91 5 17.82 5 27 C6.32 27 7.64 27 9 27 C9 28.65 9 30.3 9 32 C5.625 32.125 5.625 32.125 2 32 C0 30 0 30 -0.22705078 27.01904297 C-0.21657715 25.77268066 -0.20610352 24.52631836 -0.1953125 23.2421875 C-0.1924826 22.57913605 -0.18965271 21.91608459 -0.18673706 21.23294067 C-0.17553435 19.11344417 -0.15043051 16.99436896 -0.125 14.875 C-0.11497028 13.43880818 -0.10584441 12.00260975 -0.09765625 10.56640625 C-0.075595 7.04413372 -0.04106494 3.52210797 0 0 Z " fill="#112B51" transform="translate(463,98)"/>
<path d="M0 0 C1.65 0 3.3 0 5 0 C5.33 0.99 5.66 1.98 6 3 C6.391875 2.505 6.78375 2.01 7.1875 1.5 C9.55091715 -0.45593143 11.01435003 -0.24207973 14 0 C13.67 1.65 13.34 3.3 13 5 C11.02 5.66 9.04 6.32 7 7 C6.67 12.28 6.34 17.56 6 23 C4.02 23 2.04 23 0 23 C0 15.41 0 7.82 0 0 Z " fill="#193257" transform="translate(445,107)"/>
<path d="M0 0 C1.2375 -0.103125 2.475 -0.20625 3.75 -0.3125 C4.79414063 -0.39951172 4.79414063 -0.39951172 5.859375 -0.48828125 C8 0 8 0 10.25 1.9375 C12.66085687 6.15649952 12.44546699 9.54987159 12.25 14.3125 C12.23195313 15.14845703 12.21390625 15.98441406 12.1953125 16.84570312 C12.14841126 18.89763228 12.07667411 20.94896756 12 23 C10.02 23 8.04 23 6 23 C5.67 17.39 5.34 11.78 5 6 C2.69 6 0.38 6 -2 6 C-1.34 4.02 -0.68 2.04 0 0 Z " fill="#1D365B" transform="translate(336,107)"/>
<path d="M0 0 C3 0.25 3 0.25 5 2.25 C5.23046875 4.34375 5.23046875 4.34375 5.1875 6.75 C5.17783203 7.94109375 5.17783203 7.94109375 5.16796875 9.15625 C5 11.25 5 11.25 4 13.25 C0.625 13.4375 0.625 13.4375 -3 13.25 C-5.71232939 9.18150591 -5.30699887 7.08523216 -5 2.25 C-3 0.25 -3 0.25 0 0 Z " fill="#F9F9FA" transform="translate(428,111.75)"/>
<path d="M0 0 C3 0.25 3 0.25 5 2.25 C5.265625 4.34375 5.265625 4.34375 5.25 6.75 C5.25515625 7.5440625 5.2603125 8.338125 5.265625 9.15625 C5 11.25 5 11.25 3 13.25 C0 13.5 0 13.5 -3 13.25 C-5 11.25 -5 11.25 -5.265625 9.15625 C-5.25789062 7.96515625 -5.25789062 7.96515625 -5.25 6.75 C-5.25515625 5.9559375 -5.2603125 5.161875 -5.265625 4.34375 C-4.80957894 0.74903399 -3.45860435 0.28821703 0 0 Z " fill="#FAFBFB" transform="translate(205,111.75)"/>
<path d="M0 0 C3 0.25 3 0.25 5 2.25 C5.46376812 9.55434783 5.46376812 9.55434783 3 13.25 C0 13.5625 0 13.5625 -3 13.25 C-5 11.25 -5 11.25 -5.265625 9.15625 C-5.25789063 7.96515625 -5.25789063 7.96515625 -5.25 6.75 C-5.25515625 5.9559375 -5.2603125 5.161875 -5.265625 4.34375 C-4.80957894 0.74903399 -3.45860435 0.28821703 0 0 Z " fill="#F8F9FA" transform="translate(486,111.75)"/>
<path d="M0 0 C0.99 0.103125 1.98 0.20625 3 0.3125 C5.45811625 3.99967438 5.31118164 5.95595704 5 10.3125 C4.01 11.7975 4.01 11.7975 3 13.3125 C-0.625 13.5 -0.625 13.5 -4 13.3125 C-5.17673198 10.95903604 -5.16623866 9.4318967 -5.1875 6.8125 C-5.20167969 6.0184375 -5.21585937 5.224375 -5.23046875 4.40625 C-4.83454919 0.80942145 -3.43247149 0.35754911 0 0 Z " fill="#F6F7F8" transform="translate(285,111.6875)"/>
<path d="M0 0 C-1.98 0.99 -1.98 0.99 -4 2 C-3.34 2.33 -2.68 2.66 -2 3 C-2 3.66 -2 4.32 -2 5 C-2.9075 5.2475 -3.815 5.495 -4.75 5.75 C-8.04336374 6.76414355 -8.04336374 6.76414355 -10.0625 9.0625 C-12 11 -12 11 -17 12 C-16.67 8.37 -16.34 4.74 -16 1 C-10.59255982 0.22750855 -5.46137814 -0.09752461 0 0 Z " fill="#D99107" transform="translate(64,82)"/>
<path d="M0 0 C3.16115776 1.36983503 3.9927092 1.9890638 6 5 C4.35 4.34 2.7 3.68 1 3 C1.144375 3.680625 1.28875 4.36125 1.4375 5.0625 C0.736871 9.76672329 -2.43452947 12.06333665 -6 15 C-12.97994987 20 -12.97994987 20 -16 20 C-16 18 -16 18 -14.5625 16.5 C-14.046875 16.005 -13.53125 15.51 -13 15 C-12.67 14.34 -12.34 13.68 -12 13 C-11.01 13 -10.02 13 -9 13 C-8.773125 12.278125 -8.54625 11.55625 -8.3125 10.8125 C-6.74537323 7.45437121 -4.671784 5.5381948 -2 3 C-1.34 2.01 -0.68 1.02 0 0 Z " fill="#1D3756" transform="translate(86,114)"/>
<path d="M0 0 C6.0546875 -0.1953125 6.0546875 -0.1953125 8 0 C10 2 10 2 10.25 4.5 C10 7 10 7 8 9 C5.31160615 9.26991906 2.70858064 9.08737357 0 9 C0 6.03 0 3.06 0 0 Z " fill="#DFE2E7" transform="translate(173,104)"/>
<path d="M0 0 C2.96175123 0.61277612 4.38058783 1.25372522 7 3 C7.6875 5.125 7.6875 5.125 8 7 C7.195625 7.391875 6.39125 7.78375 5.5625 8.1875 C3.59386897 9.18908421 1.63574974 10.21704031 -0.26171875 11.34765625 C-1.04160156 11.81042969 -1.82148437 12.27320313 -2.625 12.75 C-3.35976563 13.19859375 -4.09453125 13.6471875 -4.8515625 14.109375 C-7.37948316 15.15731302 -8.47799362 14.93576707 -11 14 C-9.71086513 13.32845067 -8.41859796 12.66291141 -7.125 12 C-6.40570313 11.62875 -5.68640625 11.2575 -4.9453125 10.875 C-3 10 -3 10 -1 10 C-1.020625 8.72125 -1.04125 7.4425 -1.0625 6.125 C-1.125 2.25 -1.125 2.25 0 0 Z " fill="#3A75A8" transform="translate(63,128)"/>
<path d="M0 0 C-1.51417094 0.96882567 -3.03674154 1.92452752 -4.5625 2.875 C-5.40941406 3.40867188 -6.25632812 3.94234375 -7.12890625 4.4921875 C-13.69941271 7.94282083 -19.69789888 8.2681404 -26.9375 8.125 C-27.81212891 8.11597656 -28.68675781 8.10695312 -29.58789062 8.09765625 C-31.72538064 8.0742957 -33.86272786 8.03843247 -36 8 C-36 7.67 -36 7.34 -36 7 C-34.39658445 6.66307215 -32.79223445 6.33058907 -31.1875 6 C-30.29417969 5.814375 -29.40085937 5.62875 -28.48046875 5.4375 C-26 5 -26 5 -23 5 C-16.48151886 4.8533675 -11.89509436 3.24480541 -6.26171875 -0.0390625 C-3.65807611 -1.14527336 -2.59843138 -0.98704716 0 0 Z " fill="#1F3B61" transform="translate(112,166)"/>
<path d="M0 0 C-3.11910856 1.79275866 -5.67682428 2.34290718 -9.25 2.625 C-10.14203125 2.69976562 -11.0340625 2.77453125 -11.953125 2.8515625 C-12.62859375 2.90054688 -13.3040625 2.94953125 -14 3 C-13.01 3.66 -12.02 4.32 -11 5 C-15.29 5 -19.58 5 -24 5 C-22.68 4.34 -21.36 3.68 -20 3 C-20.33 2.01 -20.66 1.02 -21 0 C-14.33020717 -2.22326428 -6.84416749 -1.01395074 0 0 Z " fill="#4B3202" transform="translate(103,96)"/>
<path d="M0 0 C3.465 1.485 3.465 1.485 7 3 C2.85989729 7.54075781 -1.82390176 10.71842138 -7 14 C-5.82035093 11.4978744 -4.74761805 9.70173042 -2.9375 7.5625 C-0.93292265 4.91128479 -0.37223494 3.25705571 0 0 Z " fill="#2D70A5" transform="translate(87,116)"/>
<path d="M0 0 C0.66 0 1.32 0 2 0 C1.37349014 3.4109981 0.05783637 5.62256336 -1.9375 8.4375 C-3.66182006 10.87357872 -4.96788452 12.91290082 -6.00390625 15.72265625 C-6.33261719 16.47417969 -6.66132812 17.22570312 -7 18 C-7.99 18.33 -8.98 18.66 -10 19 C-8.11362269 12.00054734 -5.21770177 5.21770177 0 0 Z " fill="#203652" transform="translate(56,65)"/>
<path d="M0 0 C2.5625 0.1875 2.5625 0.1875 4.5625 2.1875 C4.5625 3.1775 4.5625 4.1675 4.5625 5.1875 C1.5925 5.1875 -1.3775 5.1875 -4.4375 5.1875 C-3.20220588 0.24632353 -3.20220588 0.24632353 0 0 Z " fill="#ECEEF1" transform="translate(363.4375,110.8125)"/>
<path d="M0 0 C1.04449911 3.13349732 0.93423645 3.98968256 0 7 C1.32 7.66 2.64 8.32 4 9 C2.02 9.99 2.02 9.99 0 11 C-2.0625 9.25 -2.0625 9.25 -4 7 C-3.91773794 4.28535198 -3.23959034 3.26834119 -1.4375 1.25 C-0.963125 0.8375 -0.48875 0.425 0 0 Z " fill="#3A70A1" transform="translate(89,133)"/>
<path d="M0 0 C0.66 0.66 1.32 1.32 2 2 C1.67 2.33 1.34 2.66 1 3 C0.63239269 5.32817964 0.29758419 7.6618385 0 10 C-1.98 10.66 -3.96 11.32 -6 12 C-4.68139111 7.38486888 -2.78644563 3.90102388 0 0 Z " fill="#C6860A" transform="translate(55,70)"/>
<path d="M0 0 C4.08332902 1.55466197 6.08208993 4.25087844 8.75 7.625 C9.54921875 8.62789062 10.3484375 9.63078125 11.171875 10.6640625 C12.07679687 11.82035156 12.07679687 11.82035156 13 13 C12.67 13.66 12.34 14.32 12 15 C7.86051134 11.96437498 5.50966871 9.2928774 3 4.75390625 C2.07190454 3.12611381 1.03938879 1.55908318 0 0 Z " fill="#223B58" transform="translate(110,130)"/>
<path d="M0 0 C0.66 0.33 1.32 0.66 2 1 C-4.435 6.94 -4.435 6.94 -11 13 C-11.66 12.34 -12.32 11.68 -13 11 C-9.0299782 6.78185183 -4.69159716 3.38772897 0 0 Z " fill="#424E4D" transform="translate(106,109)"/>
<path d="M0 0 C-2.16158143 4.65571384 -4.12792241 7.98396789 -9 10 C-9 7 -9 7 -7.5390625 5.17578125 C-6.90742187 4.56089844 -6.27578125 3.94601563 -5.625 3.3125 C-4.68527344 2.37857422 -4.68527344 2.37857422 -3.7265625 1.42578125 C-2 0 -2 0 0 0 Z " fill="#D59313" transform="translate(103,115)"/>
<path d="M0 0 C-1.49097658 3.7952131 -3.75700849 5.61042731 -7 8 C-6.65930765 4.84859577 -6.41923159 3.39218439 -4.0625 1.1875 C-2 0 -2 0 0 0 Z " fill="#233448" transform="translate(94,121)"/>
<path d="M0 0 C3.465 1.485 3.465 1.485 7 3 C5.71034824 4.37562854 4.37310707 5.70766393 3 7 C2.34 7 1.68 7 1 7 C0.67 4.69 0.34 2.38 0 0 Z " fill="#3B76A6" transform="translate(87,116)"/>
<path d="M0 0 C1.32 0.33 2.64 0.66 4 1 C4 1.66 4 2.32 4 3 C4.99 4.485 4.99 4.485 6 6 C3.36 5.34 0.72 4.68 -2 4 C-1.34 2.68 -0.68 1.36 0 0 Z " fill="#3F423F" transform="translate(99,66)"/>
<path d="M0 0 C1.07894531 0.12761719 2.15789063 0.25523438 3.26953125 0.38671875 C4.35621094 0.50660156 5.44289063 0.62648438 6.5625 0.75 C7.39394531 0.85699219 8.22539063 0.96398437 9.08203125 1.07421875 C9.08203125 1.40421875 9.08203125 1.73421875 9.08203125 2.07421875 C4.13203125 2.40421875 -0.81796875 2.73421875 -5.91796875 3.07421875 C-2.91796875 0.07421875 -2.91796875 0.07421875 0 0 Z " fill="#291B01" transform="translate(54.91796875,79.92578125)"/>
<path d="M0 0 C0 1.32 0 2.64 0 4 C-2.3431213 3.74438677 -4.67843403 3.40729228 -7 3 C-7.33 2.34 -7.66 1.68 -8 1 C-5.07175348 0.02391783 -3.04386724 -0.08226668 0 0 Z " fill="#D28E06" transform="translate(105,82)"/>
<path d="M0 0 C7.75 0.75 7.75 0.75 10 3 C7.69 3 5.38 3 3 3 C3 2.34 3 1.68 3 1 C2.01 0.67 1.02 0.34 0 0 Z " fill="#203045" transform="translate(92,54)"/>
</svg>
